<svg version="1.1" id="Layer_1" xmlns="http://www.w3.org/2000/svg" xmlns:xlink="http://www.w3.org/1999/xlink" x="0px"
	y="0px" viewBox="0 0 4000 4000" style="enable-background:new 0 0 4000 4000;" xml:space="preserve">
	<style type="text/css">
		.st0 {
			fill: #0BCBFF;
		}

		.st1 {
			fill: #000072;
		}

		.st2 {
			fill: #809AB2;
		}

		.st3 {
			opacity: 0.4;
		}

		.st4 {
			fill: #FFFFFF;
		}

		.st5 {
			opacity: 0.3;
		}

		.st6 {
			fill: #FF1563;
		}

		.st7 {
			opacity: 0.2;
		}

		.st8 {
			fill: #6B184E;
		}

		.st9 {
			fill: #F9A528;
		}

		.st10 {
			fill: none;
			stroke: #000072;
			stroke-width: 5;
			stroke-miterlimit: 10;
		}

		.st11 {
			fill: none;
			stroke: #000072;
			stroke-width: 28.9572;
			stroke-linecap: round;
			stroke-miterlimit: 10;
		}

		.st12 {
			fill: #929292;
		}

		.st13 {
			fill: #F79292;
		}

		.st14 {
			fill: #FF649C;
		}

		.st15 {
			opacity: 0.7;
		}
	</style>
	<g>
		<g>
			<g>
				<g>
					<path class="st1"
						d="M2182.74,2444.97c-18.92,0-27.73-7.16-31.82-14.25c-5.54-9.6-6.87-26.78,18.31-54.14
					c16.46-17.89,40.97-36.66,69.02-52.84c53.85-31.1,119.48-51.28,136.31-22.14l0,0c5.54,9.6,6.87,26.78-18.31,54.14
					c-16.46,17.89-40.98,36.66-69.02,52.84c-28.04,16.19-56.55,28.03-80.28,33.35C2197.45,2444.07,2189.45,2444.97,2182.74,2444.97z
					 M2343.64,2312.25c-15.5,0-48.45,7.48-92.9,33.14c-58.78,33.94-79.98,66.36-78.11,72.96c4.63,4.67,43.33,2.51,102.1-31.42
					c58.35-33.69,79.67-65.89,78.15-72.81C2351.63,2312.99,2348.49,2312.25,2343.64,2312.25z M2352.99,2314.23h0.05H2352.99z" />
				</g>
				<g>
					<path class="st1"
						d="M2140.08,2444.86c-28.38,0-69.01-15.76-104.53-36.27c-53.85-31.09-104.15-77.83-87.33-106.98l0,0
					c16.83-29.14,82.46-8.96,136.31,22.14c28.04,16.19,52.55,34.96,69.02,52.84c25.17,27.35,23.85,44.54,18.31,54.14
					C2166.13,2440.65,2154.73,2444.86,2140.08,2444.86z M1969.9,2314.13c-1.51,6.92,19.8,39.13,78.15,72.81
					c58.78,33.94,97.46,36.07,102.25,31.17c1.72-6.35-19.48-38.77-78.26-72.71C2013.68,2311.71,1975.14,2309.35,1969.9,2314.13z" />
				</g>
			</g>
			<g>
				<path class="st2" d="M3140.52,2498.88c-4.45,17.3-13.54,39.2-36.45,73.23c-88.07,130.42-208.89,150.22-248.05,153.18
				c-4.67,0.36-6.44,6.33-2.68,9.19c14.59,10.93,31.31,17.77,46.84,22.01c22.95,6.23,30.41,34.82,13.36,51.36
				c-140.48,136.5-344.08-5.79-344.08-5.79l-4.89-18.57l-31.74-120.28c0,0,3.91-2.64,10.64-7.78
				c39.13-29.64,174.18-142.07,201.94-299.53c24.69-139.9-96.5-275.93-168.06-337.93c-20.81-17.99-15.35-51.36,9.88-62.29
				c7.28-3.11,15.2-6.23,23.78-9.05c78.4-26.1,210.01-32.72,353.57,117.46c13.68,14.33,26.1,28.38,37.35,42.13
				c154.92,189.89,83.65,322.51,63.67,352.41c-2.1,3.15-0.14,7.53,3.69,7.85c11.11,1.09,25.74-0.29,39.42-2.39
				C3128.76,2461.05,3145.59,2479.3,3140.52,2498.88z" />
				<path class="st1" d="M2766.6,2869.15c-103.75,0-197.2-64.08-198.59-65.05l-0.75-0.52l-5.12-19.45l-32.19-121.99l1.47-0.99
				c0.04-0.03,3.94-2.67,10.52-7.7c40.2-30.46,173.48-141.95,201-297.97c27.08-153.48-121.16-295.68-167.24-335.61
				c-10.33-8.93-15.27-22.31-13.2-35.8c2.1-13.68,10.96-25.15,23.73-30.68c8.4-3.59,16.24-6.58,23.99-9.13
				c84.19-28.02,214.32-30.28,356.15,118.11c13.41,14.05,26.02,28.27,37.48,42.28c153.69,188.38,87.7,319.64,63.81,355.38
				c-0.51,0.77-0.58,1.74-0.17,2.59c0.18,0.38,0.74,1.28,2,1.39c9.49,0.93,22.54,0.13,38.83-2.37c10.35-1.57,20.73,2.12,27.72,9.88
				c6.88,7.62,9.45,18.09,6.89,28l0,0c-5.57,21.66-16.92,44.48-36.8,74c-89.37,132.35-213.9,151.55-249.94,154.28
				c-1.65,0.13-2.17,1.46-2.29,1.87s-0.41,1.82,0.94,2.84c12.59,9.44,28.06,16.7,45.98,21.59c11.68,3.17,20.45,12.01,23.46,23.66
				c2.99,11.6-0.38,23.53-9.02,31.91C2869.49,2854.13,2816.84,2869.15,2766.6,2869.15z M2571.63,2800.52
				c13.63,9.16,207.03,134.89,340.16,5.54c7.34-7.12,10.2-17.24,7.66-27.08c-2.55-9.88-10-17.39-19.93-20.09
				c-18.54-5.05-34.58-12.6-47.68-22.42c-2.56-1.94-3.62-5.17-2.72-8.24c0.9-3.06,3.53-5.2,6.7-5.45
				c35.48-2.69,158.07-21.6,246.18-152.09c19.54-29.02,30.68-51.36,36.1-72.45l0,0c2.17-8.4,0.07-16.93-5.76-23.4
				c-5.87-6.51-14.59-9.61-23.26-8.29c-16.69,2.56-30.16,3.37-40.04,2.4c-2.62-0.22-4.89-1.79-6.05-4.2
				c-1.18-2.46-0.99-5.27,0.52-7.53c23.41-35.02,87.99-163.73-63.53-349.44c-11.38-13.9-23.9-28.03-37.23-41.98
				c-140.03-146.49-268.14-144.38-350.97-116.81c-7.62,2.51-15.33,5.44-23.59,8.97c-11.16,4.84-18.93,14.87-20.76,26.84
				c-1.8,11.77,2.51,23.46,11.53,31.26c46.58,40.36,196.43,184.18,168.88,340.26c-27.83,157.82-162.33,270.35-202.89,301.08
				c-4.39,3.35-7.57,5.63-9.28,6.85L2571.63,2800.52z" />
			</g>
			<g class="st3">
				<path class="st4" d="M2532.82,2663.21c0,0,3.91-2.64,10.64-7.78c39.13-29.64,174.18-142.07,201.94-299.53
				c24.69-139.9-96.5-275.93-168.06-337.93c-20.81-17.99-15.35-51.36,9.88-62.29c7.28-3.11,15.2-6.23,23.78-9.05
				c31.53-10.5,71.63-17.85,117.67-13.14c-22.8,2.28-43.36,7.2-61.17,13.14c-8.58,2.82-16.51,5.94-23.78,9.05
				c-25.23,10.93-30.69,44.3-9.88,62.29c71.56,62,192.75,198.03,168.06,337.93c-27.76,157.45-162.81,269.88-201.94,299.53
				c-6.73,5.14-10.64,7.78-10.64,7.78H2532.82z" />
			</g>
			<g>
				<path class="st4" d="M2564.55,2783.51l4.9,18.55c0,0,203.59,142.31,344.06,5.8c17.06-16.55,9.59-45.16-13.35-51.39
				c-15.52-4.22-32.24-11.05-46.82-22c-3.75-2.86-2-8.83,2.69-9.17c39.15-2.99,159.96-22.77,248.02-153.18
				c22.94-34.03,32.03-55.95,36.46-73.22c5.07-19.62-11.77-37.83-31.81-34.8c-13.69,2.09-28.32,3.45-39.4,2.39
				c-3.84-0.34-5.8-4.69-3.71-7.85c21.45-32.07,101.88-182.31-101.03-394.55c-143.54-150.2-275.15-143.54-353.57-117.44
				l-19.74,19.36c0,0,287.21,70.71,366.75,306.06C3038.89,2511.43,2750.48,2790.12,2564.55,2783.51z" />
			</g>
			<g>
				<path class="st1" d="M2765.76,2881.48c-25.68,0-52.67-3.77-80.73-11.36c-70.1-18.96-121.71-54.69-123.87-56.2
				c-2.81-1.97-4.83-4.86-5.7-8.17l-36.63-138.85c-1.56-5.93,0.78-12.2,5.84-15.65c1.75-1.2,175.42-121.6,206.5-297.83
				c20.64-117.06-70.83-244.36-163.31-324.46c-13.47-11.67-19.9-29.14-17.19-46.74c2.74-17.77,14.26-32.66,30.82-39.82
				c75.8-32.77,227.71-61.83,393.56,111.67c188.6,197.3,138.68,346.4,111.26,398c5.97-0.39,12.77-1.16,20.24-2.29
				c14.35-2.17,28.71,2.95,38.42,13.7c9.58,10.61,13.16,25.21,9.59,39.03c-5.98,23.13-17.86,47.09-38.52,77.7
				c-75.91,112.46-176.64,145.9-230.89,155.81c5.87,2.49,12.15,4.65,18.83,6.47c15.87,4.31,27.79,16.36,31.89,32.23
				c4.09,15.83-0.49,32.11-12.25,43.53C2880.46,2860.18,2826.8,2881.48,2765.76,2881.48z M2582.04,2793
				c29.35,18.73,202.06,120.44,321.39,4.48c6.06-5.89,5.09-12.81,4.39-15.52c-0.7-2.72-3.23-9.29-11.44-11.53
				c-20.06-5.45-37.47-13.66-51.74-24.42c-6.57-4.95-9.32-13.25-7-21.15c2.32-7.9,9.11-13.4,17.31-14.02
				c34.1-2.57,151.99-20.75,237.08-146.83c24.27-35.96,31.3-56.46,34.48-68.74c1.15-4.45,0.04-8.96-3.05-12.39
				c-3.22-3.56-7.81-5.2-12.58-4.47c-17.72,2.68-32.18,3.51-42.97,2.49c-6.89-0.66-12.78-4.79-15.75-11.06
				c-2.98-6.29-2.45-13.49,1.42-19.27c17.9-26.77,97.22-170.74-99.46-376.49c-153.74-160.83-292.25-134.88-361.14-105.11
				c-7.36,3.18-12.48,9.78-13.69,17.65c-1.2,7.81,1.54,15.26,7.52,20.44c47.79,41.39,201.5,189.05,172.87,351.37
				c-29.54,167.5-173.4,283.41-210.31,310.72L2582.04,2793z" />
			</g>
			<g>
				<g class="st5">
					<path class="st1" d="M2653.04,2844.52c69.35,19.99,158.26,23.51,230.49-46.67c17.05-16.54,9.59-45.14-13.36-51.36
					c-15.53-4.23-32.25-11.08-46.84-22.01c-3.76-2.86-1.99-8.83,2.68-9.19c39.16-2.97,159.99-22.77,248.05-153.18
					c22.91-34.02,32-55.92,36.45-73.23c2.34-9.05-0.03-17.78-5.2-24.29c-12.68,1.81-25.83,2.9-36.04,1.9
					c-3.84-0.33-5.79-4.71-3.69-7.85c0.61-0.92,1.27-1.93,1.98-3.04c-10.14,1.16-20.15,1.69-28.28,0.9
					c-3.84-0.33-5.79-4.71-3.69-7.85c17.79-26.62,76.22-134.65-20.48-292.02c16.76,91.57,0.61,204.25-61.43,330.03
					c-87.09,176.58-389.13,296.86-389.13,296.86l4.89,18.57c0,0,36.85,25.74,90,44.82
					C2657.29,2846.11,2655.15,2845.32,2653.04,2844.52z" />
				</g>
			</g>
			<g>
				<path class="st2" d="M2389.67,3257.13c0,145.8-43.91,223.08-136.75,201.11c-75.07-17.74-74.02-186.56-74.02-186.56
				c-1.05-0.65-2.1-1.34-3.15-2.03c-159.73-102.44-125.42-259.82-125.42-259.82l321.61-9.41c-15.78,44.77-4.96,100.63,5.39,156.88
				C2383.59,3191.22,2389.67,3225.24,2389.67,3257.13z" />
			</g>
			<g>
				<path class="st4" d="M2389.67,3257.13c0,145.8-43.91,223.08-136.75,201.11c-75.07-17.74-74.02-186.56-74.02-186.56
				c-1.05-0.65-2.1-1.34-3.15-2.03c16.76-12.92,48.1-31.49,93.89-35.91c66.82-6.41,97.19-35.22,107.68-76.45
				C2383.59,3191.22,2389.67,3225.24,2389.67,3257.13z" />
			</g>
			<g>
				<path class="st1" d="M2283.34,3476.44c-10.42,0-21.42-1.36-32.97-4.1c-76.49-18.1-84.39-154.76-85.1-192.71
				c-162.34-106.75-128.68-271.21-128.31-272.88c1.7-7.81,9.42-12.77,17.23-11.06c7.81,1.7,12.76,9.4,11.07,17.21
				c-1.33,6.27-30.12,151.09,122.12,246.52l6.83,4.28l-0.05,8.07c-0.24,43.75,10.57,160.02,62.87,172.39
				c28.84,6.82,51.58,3.22,69.57-11.01c32.3-25.55,49.37-86.42,49.37-176.02c0-31.66-6.48-66.77-12.75-100.73
				c-10.28-55.7-20.91-113.29-4.16-160.8c2.66-7.54,10.92-11.5,18.47-8.84c7.54,2.66,11.5,10.93,8.84,18.47
				c-14.19,40.21-4.71,91.55,5.32,145.91c6.5,35.24,13.23,71.67,13.23,105.98c0,100.19-20.31,167.05-60.36,198.74
				C2327.26,3469.56,2306.75,3476.44,2283.34,3476.44z" />
			</g>
			<g>
				<path class="st1" d="M2293.36,3381.44c5.98,11.95,11.61,23.59,17.91,34.26c3.16,5.3,6.49,10.35,9.77,15.02
				c3.31,4.67,6.67,8.81,9.88,12.92l0.66,0.85c3.41,4.37,2.64,10.68-1.73,14.09c-3.44,2.69-8.09,2.76-11.57,0.55
				c-6.8-4.33-11.68-10.46-15.5-16.71c-3.84-6.29-6.14-13.07-8.13-19.75c-1.96-6.7-3.11-13.5-3.88-20.29
				c-0.65-6.81-0.93-13.59-0.22-20.47c0.08-0.81,0.81-1.4,1.62-1.32c0.52,0.05,0.95,0.37,1.17,0.8L2293.36,3381.44z" />
			</g>
			<g>
				<path class="st1" d="M2230.7,3385.09c5.04,12.33,10.27,24.08,16.29,34.83c2.93,5.43,6.4,10.35,9.51,15.28
				c3.18,4.94,6.68,9.31,9.76,14.23l0.51,0.81c2.94,4.7,1.51,10.9-3.19,13.85c-3.73,2.33-8.4,1.91-11.65-0.7
				c-5.8-4.69-10.47-10.61-13.99-16.94c-3.52-6.34-6.01-13.12-7.74-19.93c-1.76-6.81-2.84-13.71-3.3-20.58
				c-0.37-6.9-0.28-13.75,0.94-20.62c0.14-0.8,0.91-1.34,1.71-1.19c0.51,0.09,0.92,0.44,1.1,0.89L2230.7,3385.09z" />
			</g>
			<g class="st5">
				<path class="st1" d="M2389.67,3257.13c0,145.8-43.91,223.08-136.75,201.11c-18.24-4.31-32-17.56-42.35-35.11
				c92.59,21.68,158.58-40.87,142.23-191.95c-3.43-31.7-11.92-75.15-18.18-109.06c-5.49-29.85-4.06-57.92,0.79-84.41
				c3.41-18.65,18.01-33.25,36.53-37.28l0,0c-15.78,44.77-4.96,100.63,5.39,156.88C2383.59,3191.22,2389.67,3225.24,2389.67,3257.13
				z" />
			</g>
			<g>
				<g>
					<path class="st2" d="M1687.41,3207.6c-8.18,23.31-15.35,45.64-15.2,72.18c0.47,89.44,3.58,174.03-101.82,182.58
					c-2.06,0.18-4.16,0.25-6.19,0.25c-1.09,0-2.17-0.04-3.26-0.07c-1.09-0.04-2.17-0.11-3.22-0.22c-0.98-0.07-1.99-0.18-2.97-0.29
					c-0.18-0.04-0.33-0.07-0.51-0.07c-0.9-0.15-1.81-0.25-2.68-0.4c-0.11-0.04-0.18-0.04-0.29-0.07c-0.98-0.14-1.92-0.33-2.86-0.54
					c-0.58-0.11-1.16-0.25-1.74-0.4c-0.69-0.14-1.34-0.33-2.03-0.51c-1.81-0.47-3.58-1.01-5.36-1.63c-0.54-0.18-1.09-0.36-1.63-0.58
					c-1.59-0.54-3.19-1.19-4.74-1.88c-0.98-0.4-1.92-0.83-2.86-1.3c-0.98-0.47-1.95-0.94-2.93-1.45c-0.98-0.51-1.92-1.01-2.86-1.56
					c-1.92-1.09-3.8-2.24-5.68-3.48c-0.9-0.58-1.85-1.23-2.75-1.88c-0.94-0.65-1.85-1.3-2.75-1.99c-0.9-0.69-1.81-1.38-2.68-2.1
					c-0.9-0.69-1.77-1.41-2.64-2.17c-2.68-2.24-5.28-4.63-7.82-7.17c-1.38-1.41-2.79-2.86-4.16-4.34c-0.25-0.25-0.47-0.51-0.69-0.76
					c-0.8-0.9-1.59-1.81-2.39-2.71c-0.8-0.94-1.59-1.88-2.35-2.82c-0.8-0.94-1.56-1.88-2.32-2.86c-1.52-1.92-2.97-3.87-4.45-5.9
					c0-0.04-0.04-0.07-0.04-0.07c-1.45-2.03-2.86-4.13-4.27-6.26c-0.69-1.05-1.38-2.14-2.06-3.22c-0.62-0.98-1.23-1.99-1.88-3.04
					c-0.72-1.19-1.41-2.39-2.1-3.58c-0.65-1.12-1.27-2.28-1.92-3.4c-0.07-0.14-0.14-0.29-0.25-0.43c-0.94-1.77-1.88-3.58-2.79-5.39
					c-1.41-2.75-2.75-5.54-4.05-8.36c-0.54-1.19-1.09-2.43-1.63-3.66c-0.54-1.23-1.05-2.46-1.56-3.69
					c-1.99-4.71-3.8-9.52-5.47-14.41c-0.4-1.12-0.76-2.24-1.12-3.4c-1.01-3-1.92-6.08-2.79-9.16c-0.65-2.28-1.27-4.56-1.85-6.88
					c-0.22-0.9-0.47-1.77-0.65-2.68c-0.22-0.8-0.4-1.63-0.58-2.43c-0.8-3.44-1.52-6.91-2.17-10.39c-0.22-1.19-0.43-2.35-0.62-3.55
					c-0.22-1.19-0.4-2.39-0.58-3.58c-0.22-1.19-0.36-2.39-0.54-3.58c-2.28-16.07-2.9-32.29-1.67-47.92c0.18-2.39,0.4-4.74,0.58-7.06
					c1.95-21.03,4.85-39.24,7.89-55.2c6.88-36.34,14.48-61.1,13.46-81.73c-0.33-7.02-1.66-13.57-4.38-19.95l224.78-75.18l14.3-4.78
					C1723.29,3112.41,1703.41,3161.85,1687.41,3207.6z" />
				</g>
				<g>
					<path class="st4" d="M1672.21,3279.79c0.47,89.44,3.58,174.03-101.82,182.57c-77.06,6.26-134.72-105.55-127.38-197.99
					c0.18-2.39,0.4-4.74,0.58-7.06c17.34-12.2,48.5-28.38,95.12-32.29c60.59-5.07,114.63,2.93,148.69-17.41
					C1679.23,3230.93,1672.06,3253.26,1672.21,3279.79z" />
				</g>
				<g class="st5">
					<path class="st1" d="M1687.41,3207.6c-8.18,23.31-15.35,45.64-15.2,72.18c0.47,89.44,3.58,174.03-101.82,182.58
					c-2.06,0.18-4.16,0.25-6.19,0.25c-1.09,0-2.17-0.04-3.26-0.07c-1.09-0.04-2.17-0.11-3.22-0.22c-0.98-0.07-1.99-0.18-2.97-0.29
					c-0.18-0.04-0.33-0.07-0.51-0.07c-0.9-0.15-1.81-0.25-2.68-0.4c-0.11-0.04-0.18-0.04-0.29-0.07c-0.98-0.14-1.92-0.33-2.86-0.54
					c-0.58-0.11-1.16-0.25-1.74-0.4c-0.69-0.14-1.34-0.33-2.02-0.51c-1.81-0.48-3.59-1.04-5.37-1.63c-0.54-0.18-1.08-0.36-1.62-0.58
					c-1.59-0.54-3.19-1.19-4.74-1.88c-0.98-0.4-1.92-0.83-2.86-1.3c-0.98-0.47-1.95-0.94-2.93-1.45c-0.98-0.51-1.92-1.01-2.86-1.56
					c-1.92-1.09-3.8-2.24-5.68-3.48c-0.9-0.58-1.85-1.23-2.75-1.88c-0.94-0.65-1.85-1.3-2.75-1.99c-0.9-0.69-1.81-1.38-2.68-2.1
					c-0.9-0.69-1.77-1.41-2.64-2.17c-2.68-2.24-5.28-4.63-7.82-7.17c-1.41-1.41-2.79-2.86-4.16-4.34c-0.25-0.25-0.47-0.51-0.69-0.76
					c-0.8-0.9-1.59-1.81-2.39-2.71c-0.8-0.94-1.59-1.88-2.35-2.82c-0.8-0.94-1.56-1.88-2.32-2.86c-1.52-1.92-2.97-3.87-4.45-5.9
					c0-0.04-0.04-0.07-0.04-0.07c-1.45-2.03-2.86-4.13-4.27-6.26c-0.69-1.05-1.38-2.14-2.06-3.22c-0.62-0.98-1.23-1.99-1.88-3.04
					c-0.72-1.19-1.41-2.39-2.1-3.58c-0.65-1.12-1.27-2.28-1.92-3.4c-0.07-0.14-0.14-0.29-0.25-0.43c-0.94-1.77-1.88-3.58-2.79-5.39
					c-1.41-2.75-2.75-5.54-4.05-8.36c-0.54-1.19-1.09-2.43-1.63-3.66c-0.54-1.23-1.05-2.46-1.56-3.69
					c-1.99-4.71-3.8-9.52-5.47-14.41c-0.4-1.12-0.76-2.24-1.12-3.4c-1.51-4.48-2.78-9.11-4.05-13.67c-0.24-0.85-0.42-1.7-0.63-2.55
					c-0.21-0.84-0.44-1.65-0.61-2.5c-0.23-0.86-0.43-1.76-0.62-2.61c-0.8-3.51-1.55-7.02-2.19-10.56c-0.2-1.07-0.39-2.12-0.55-3.2
					c-0.22-1.19-0.4-2.39-0.58-3.58c-0.22-1.19-0.36-2.39-0.54-3.58c23.13,43.72,59.33,77.42,100.55,71.27
					c53.04-7.91,78.51-49.37,90.71-85.46c8.87-26.26-10.52-53.56-38.24-53.2c-46.52,0.59-113.78-5.69-146.22-42.78
					c6.88-36.34,14.48-61.1,13.46-81.73c60.74,0.58,190.97,26.46,197.31,8.43c10.32-29.5,22.26-60.59,23.09-103.56l14.3-4.78
					C1723.29,3112.41,1703.41,3161.85,1687.41,3207.6z" />
				</g>
				<g>
					<path class="st1" d="M1564.2,3477.11c-26.49,0-52.09-11.64-74.44-33.96c-41.18-41.13-66.34-115.12-61.17-179.94
					c3.15-39.53,9.59-69.39,14.76-93.39c6.28-29.15,10.43-48.4,3.89-63.68c-3.15-7.35,0.26-15.86,7.61-19.01
					c7.36-3.15,15.86,0.26,19.01,7.61c10.17,23.76,4.98,47.85-2.2,81.18c-4.99,23.16-11.21,51.98-14.2,89.58
					c-4.54,56.97,17.16,121.59,52.77,157.15c12.71,12.69,33.26,27.35,59.01,25.29c85.11-6.9,89.09-65.87,88.54-161.51l-0.03-6.56
					c-0.16-31.22,8.68-56.3,18.04-82.85c15.44-43.81,31.4-89.11,9.85-172.93c-1.99-7.74,2.67-15.64,10.42-17.63
					c7.74-1.98,15.63,2.67,17.63,10.42c23.75,92.35,5.51,144.1-10.58,189.77c-8.87,25.16-16.52,46.89-16.39,73.08l0.04,6.54
					c0.49,84.9,1.04,181.12-115.16,190.54C1569.11,3477.01,1566.65,3477.11,1564.2,3477.11z" />
				</g>
				<g>
					<path class="st1" d="M1581.91,3380.64c5.4,11.48,11.4,22.08,18.28,31.46c3.37,4.74,7.11,9.04,10.73,13.28
					c3.52,4.37,7.45,8.17,10.86,12.75l0.57,0.77c3.31,4.46,2.39,10.76-2.07,14.07c-3.5,2.6-8.14,2.58-11.58,0.3
					c-5.81-3.87-10.89-8.85-14.88-14.53c-4.17-5.57-7.19-11.87-9.59-18.24c-2.43-6.37-4.11-12.95-5.04-19.58
					c-0.87-6.65-1.15-13.29-0.13-19.98c0.12-0.8,0.88-1.36,1.68-1.24c0.5,0.08,0.9,0.4,1.11,0.82L1581.91,3380.64z" />
				</g>
				<g>
					<path class="st1" d="M1502.47,3380.64c5.66,12.93,12.17,24.99,19.28,36.31c3.6,5.64,7.36,11.08,11.08,16.49
					c3.6,5.5,7.5,10.71,10.74,16.57l0.25,0.46c2.69,4.87,0.93,11-3.94,13.69c-3.95,2.19-8.75,1.42-11.85-1.54
					c-5.39-5.17-9.89-11.2-13.6-17.66c-3.86-6.38-6.59-13.39-9.02-20.38c-2.41-7.02-4.07-14.27-5.17-21.55
					c-1-7.31-1.5-14.64-0.6-22.08c0.1-0.8,0.83-1.38,1.63-1.28c0.53,0.06,0.96,0.41,1.17,0.86L1502.47,3380.64z" />
				</g>
			</g>
			<g>
				<path class="st1" d="M2137.68,2465.53c-5.93,0-11.2-4.24-12.29-10.29l-179.42-996.85c-1.22-6.79,3.29-13.29,10.09-14.52
				c6.79-1.24,13.29,3.29,14.52,10.09L2150,2450.81c1.22,6.79-3.29,13.29-10.09,14.52
				C2139.16,2465.46,2138.42,2465.53,2137.68,2465.53z" />
			</g>
			<g>
				<g>
					<path class="st6" d="M1862,1347.81l-14.37,102.3c-3.36,23.93,20.44,42.53,42.85,33.47l95.78-38.7
					c22.41-9.05,26.61-38.97,7.56-53.84l-81.41-63.59C1893.37,1312.56,1865.36,1323.87,1862,1347.81z" />
				</g>
				<g>
					<path class="st1" d="M1878.61,1488.41c-7.39,0-14.65-2.46-20.76-7.23c-9.66-7.54-14.4-19.29-12.7-31.42l14.37-102.29
					c1.7-12.13,9.5-22.12,20.86-26.71c11.37-4.59,23.91-2.82,33.56,4.71l81.4,63.59c9.66,7.54,14.4,19.29,12.7,31.42
					c-1.7,12.13-9.5,22.12-20.86,26.71l-95.78,38.7C1887.24,1487.58,1882.91,1488.41,1878.61,1488.41z M1862,1347.81l2.48,0.35
					l-14.37,102.29c-1.45,10.34,2.59,20.36,10.83,26.79c8.23,6.43,18.93,7.93,28.61,4.02l95.78-38.7
					c9.69-3.92,16.34-12.43,17.79-22.77c1.45-10.34-2.6-20.35-10.83-26.78l-81.4-63.59c-8.23-6.43-18.92-7.93-28.61-4.02
					c-9.68,3.91-16.33,12.42-17.79,22.77L1862,1347.81z" />
				</g>
			</g>
			<g>
				<path class="st1" d="M1878.58,1500.4c-10,0-19.83-3.33-28.1-9.78c-13.07-10.21-19.49-26.11-17.19-42.53l14.37-102.29
				c2.31-16.42,12.86-29.93,28.24-36.15s32.35-3.83,45.43,6.38l81.4,63.6c13.07,10.21,19.49,26.1,17.19,42.52
				c-2.31,16.42-12.86,29.94-28.24,36.15l-95.78,38.7C1890.25,1499.28,1884.39,1500.4,1878.58,1500.4z M1876.34,1349.82
				l-14.37,102.29c-1.23,8.73,4.02,13.87,6.34,15.68c2.32,1.81,8.58,5.65,16.75,2.35l95.78-38.7c8.17-3.3,10-10.42,10.41-13.33
				c0.41-2.91,0.61-10.25-6.34-15.68l-81.41-63.6c-6.94-5.42-14.03-3.45-16.75-2.35
				C1884.03,1337.59,1877.56,1341.09,1876.34,1349.82L1876.34,1349.82z" />
			</g>
			<g>
				<g>
					<path class="st6" d="M2274.09,1545.46l-67.21,78.45c-15.72,18.35-5.68,46.84,18.07,51.28l101.54,18.98
					c23.75,4.44,43.41-18.5,35.38-41.29l-34.33-97.43C2319.5,1532.66,2289.81,1527.11,2274.09,1545.46z" />
				</g>
				<g>
					<path class="st1" d="M2332.41,1697.23c-2.11,0-4.25-0.2-6.38-0.6l-101.54-18.98c-12.05-2.25-21.67-10.5-25.74-22.05
					c-4.07-11.56-1.74-24.01,6.23-33.32l67.21-78.44c7.97-9.31,19.93-13.52,31.97-11.26c12.04,2.25,21.67,10.49,25.74,22.05
					l34.33,97.43c4.07,11.56,1.74,24.01-6.23,33.31C2351.44,1693.02,2342.19,1697.22,2332.41,1697.23z M2297.79,1536.98
					c-8.33,0-16.22,3.59-21.81,10.11l-67.21,78.44c-6.8,7.93-8.78,18.55-5.31,28.4s11.67,16.88,21.94,18.8l101.54,18.98
					c10.27,1.93,20.45-1.67,27.25-9.6c6.8-7.93,8.78-18.55,5.31-28.4l-34.33-97.43c-3.47-9.85-11.67-16.88-21.94-18.8
					C2301.41,1537.15,2299.59,1536.98,2297.79,1536.98z" />
				</g>
			</g>
			<g class="st7">
				<path class="st1" d="M1862,1347.81l-14.37,102.3c-3.36,23.93,20.44,42.53,42.85,33.47l95.78-38.7
				c22.41-9.05,26.61-38.97,7.56-53.84l-81.41-63.59C1893.37,1312.56,1865.36,1323.87,1862,1347.81z" />
			</g>
			<g class="st7">
				<path class="st1" d="M2274.09,1545.46l-67.21,78.45c-15.72,18.35-5.68,46.84,18.07,51.28l101.54,18.98
				c23.75,4.44,43.41-18.5,35.38-41.29l-34.33-97.43C2319.5,1532.66,2289.81,1527.11,2274.09,1545.46z" />
			</g>
			<g>
				<path class="st1" d="M2332.47,1709.21c-2.86,0-5.74-0.27-8.64-0.81l-101.54-18.98c-16.3-3.05-29.32-14.2-34.83-29.84
				c-5.51-15.64-2.36-32.5,8.43-45.09l67.21-78.45v0c10.79-12.6,26.96-18.3,43.26-15.25c16.3,3.05,29.32,14.2,34.84,29.84
				l34.33,97.43c5.51,15.64,2.36,32.5-8.43,45.09C2358.22,1703.52,2345.7,1709.21,2332.47,1709.21z M2297.81,1548.97
				c-3.54,0-8.55,1.04-12.72,5.91v0l-67.21,78.44c-5.73,6.69-4.08,13.85-3.11,16.62c0.97,2.77,4.18,9.38,12.84,11.01l101.54,18.98
				c8.66,1.62,14.04-3.39,15.95-5.62s6.04-8.31,3.11-16.62l-34.33-97.43c-2.93-8.31-9.96-10.46-12.85-11
				C2300.25,1549.12,2299.13,1548.97,2297.81,1548.97z M2274.09,1545.46h0.05H2274.09z" />
			</g>
			<g>
				<g>
					<path class="st6" d="M1596.31,627.77c29.09-83.7,114.61-165.18,202.81-201.63c161.55-66.75,326.1-20.57,405.02,180.21
					c125.69,319.75-288.62,766.53-288.62,766.53s-602.19-11.66-754.04-319.84c-107.37-217.92,40.7-376.65,171.36-428.23
					C1421.62,589.77,1515.65,591.09,1596.31,627.77z" />
				</g>
				<g>
					<path class="st1" d="M1916.6,1375.4l-1.12-0.02c-1.51-0.03-152.76-3.39-320.62-44.42c-155.19-37.93-356.74-116.75-435.61-276.81
					c-42.32-85.91-48.73-168.46-19.03-245.38c37.16-96.22,123.39-159.32,191.71-186.28c88.44-34.91,181.69-34.21,262.93,1.89
					c29.22-80.81,112.4-162.98,203.31-200.54c86.15-35.6,169.48-38.34,241-7.92c72.9,31.01,130.76,96.55,167.3,189.52
					c65.29,166.1-16.89,366.49-97.34,505.34c-87,150.17-190.73,262.69-191.77,263.81L1916.6,1375.4z M1463.66,601.79
					c-43.12,0-87.08,8.44-129.89,25.34c-67.33,26.58-152.31,88.72-188.88,183.44c-29.17,75.55-22.83,156.76,18.85,241.36
					c78,158.32,278.1,236.46,432.22,274.15c159.71,39.05,304.35,43.89,318.5,44.27c9.61-10.52,107.61-119.24,190.4-262.17
					c79.87-137.88,161.52-336.7,96.97-500.92c-36.04-91.7-92.96-156.27-164.61-186.75c-70.24-29.88-152.25-27.14-237.13,7.94
					c-90.65,37.46-173.47,119.76-201.41,200.14l-0.9,2.59l-2.5-1.14C1553.88,611.22,1509.23,601.79,1463.66,601.79z" />
				</g>
			</g>
			<g>
				<g class="st5">
					<path class="st1" d="M1130.37,851.04c-3.79,50.41,6.27,106.41,36.14,167c151.84,308.18,754.01,319.83,754.01,319.83
					s256.23-276.35,304.53-549.91c6.79-62.42,1.73-124.08-20.89-181.62c-1.52-3.91-3.11-7.75-4.71-11.55
					c-17.8,124.73-81.03,251.31-145.56,353.21c-91.19,144-262.63,216.34-429.58,181.98c-181.26-37.31-402.43-117.06-486.29-287.24
					c-1.3-2.64-2.57-5.29-3.76-7.89c-8.24,29.7-11.54,61.88-8.51,96.22C1123.27,902.88,1125.07,876.15,1130.37,851.04z" />
				</g>
			</g>
			<g>
				<path class="st1" d="M2164.06,2433.69c-0.6,0-1.21-0.04-1.82-0.13c-6.83-1-11.56-7.34-10.56-14.17l107.53-737.28
				c1-6.83,7.31-11.56,14.17-10.56c6.83,1,11.56,7.34,10.56,14.17l-107.53,737.28C2175.51,2429.21,2170.17,2433.69,2164.06,2433.69z
				" />
			</g>
			<g class="st5">
				<g>
					<path class="st4" d="M1773.2,708.65c-1.18-53.02,51.95-152,177.04-172.84c103.47-17.24,148.43,48.35,127.81,76.8
					c-20.62,28.45-58.02,29.34-131,119.02C1886.84,805.64,1776.29,847.71,1773.2,708.65z" />
				</g>
			</g>
			<g class="st3">
				<g>
					<path class="st4"
						d="M2214.53,637.45c-0.09-0.41-0.2-0.82-0.29-1.23c-2.87-10.07-6.22-20.04-10.09-29.88
					c-78.92-200.77-243.47-246.96-405.02-180.21c-88.2,36.45-173.72,117.93-202.81,201.63c-80.66-36.68-174.69-38-263.46-2.96
					c-113.1,44.64-239.2,169.59-201.43,343.7c4.68,16.48,10.79,33.36,18.54,50.64c-53.84-229.88,102.3-307.56,176.84-340.51
					c71.61-31.66,207.38-36.94,288.06-0.24c29.07-83.72,114.6-165.2,202.81-201.65C1973.86,412.2,2132.83,453.25,2214.53,637.45z" />
				</g>
			</g>
			<g>
				<path class="st1" d="M1867.77,1384.6c-3.11,0-6.22-0.12-9.34-0.35c-171.75-13.02-584.73-70.74-709.92-324.82
				c-43.25-87.78-49.98-175.95-19.46-254.98c38.55-99.83,127.81-165.21,198.49-193.11c87.3-34.46,179.25-35.33,260.67-2.77
				c33.74-79.86,115.99-158.86,205.39-195.81c89.19-36.85,175.73-39.57,250.26-7.87c75.93,32.3,136.02,100.13,173.76,196.16
				c103.79,264.03-143.23,604.48-254.25,738.59C1939.73,1368.2,1904.53,1384.6,1867.77,1384.6z M1463.65,613.78
				c-41.64,0-84.1,8.16-125.49,24.49c-64.97,25.65-146.92,85.51-182.1,176.61c-27.92,72.3-21.72,150.28,18.42,231.75
				c51.36,104.25,162.24,185.23,329.55,240.71c139.44,46.24,283.26,62.47,356.58,68.03c30.74,2.33,60.8-10.46,80.45-34.2
				c47.33-57.17,136.16-172.94,199.35-305.95c75.86-159.66,92.77-295.44,50.26-403.58c-34.84-88.64-89.53-150.92-158.15-180.11
				c-67.22-28.59-146.01-25.83-227.87,7.99c-87.72,36.25-167.77,115.61-194.67,193l-5.21,15l-14.46-6.57
				C1550.51,622.84,1507.54,613.78,1463.65,613.78z" />
			</g>
			<g>
				<g>
					<path class="st6" d="M2582.84,817.82c78.98-40.19,197.1-39.66,285.94-4.82c162.73,63.82,249.35,211.16,167.12,410.59
					c-108.13,262.24-541.66,331.83-689.55,348.12c-31.47,3.47-62.65-8.39-83.84-31.91c-98.95-109.8-373.71-446.69-287.86-716.72
					c73.61-231.52,290.36-243.34,420.3-189.98C2483.23,669.36,2550.11,735.48,2582.84,817.82z" />
				</g>
				<g>
					<path class="st1" d="M2335.64,1574.8c-28.38,0-55.8-12.03-74.99-33.32c-49.53-54.96-143.14-166.86-213.58-298.77
					c-86.7-162.36-111.87-303.8-74.8-420.38c29.02-91.26,81.61-155.22,156.32-190.09c93.46-43.62,199.37-29.35,267.31-1.45
					c87.95,36.12,154.7,101.25,188.25,183.57c77.07-38.01,193.98-39.61,285.55-3.69c86.78,34.04,148.76,89.81,179.23,161.3
					c31.07,72.88,27.36,160.22-10.72,252.57c-46.68,113.22-158.15,203.28-331.3,267.68c-140.54,52.27-286.05,73.79-360.28,81.97
					C2342.96,1574.6,2339.29,1574.8,2335.64,1574.8z M2259.55,609.47c-42.37,0-86.89,7.72-128.85,27.3
					c-73.39,34.25-125.1,97.19-153.67,187.07c-36.64,115.25-11.59,255.38,74.45,416.51c70.19,131.45,163.51,242.99,212.88,297.78
					c20.58,22.84,51.14,34.47,81.71,31.1c74-8.15,219.06-29.6,359.09-81.68c171.79-63.89,282.29-153.02,328.42-264.9
					c37.56-91.09,41.27-177.09,10.74-248.71c-29.94-70.22-90.95-125.07-176.46-158.61c-91.31-35.81-208.05-33.87-283.9,4.72
					l-2.44,1.24l-1.01-2.55c-32.7-82.25-98.94-147.35-186.52-183.32C2357.58,620.46,2310.09,609.47,2259.55,609.47z" />
				</g>
			</g>
			<g>
				<g class="st5">
					<path class="st1"
						d="M2207.94,1476.03c10.95,12.84,20.95,24.19,29.59,33.78c21.17,23.53,52.38,35.36,83.83,31.89
					c147.9-16.29,581.42-85.86,689.54-348.1c50.12-121.5,37.54-223.65-16.75-299.38c-0.29-0.3-0.56-0.61-0.85-0.91
					c-0.18,44.2-10.17,92.52-31.53,144.32c-30.96,75.06-95.35,137.87-171.5,189.3c-251.66,169.96-593.33,119.57-780.3-119.72
					c-0.37-0.47-0.71-0.93-1.07-1.4c0,0.01,0.01,0.01,0.02,0.02c-8.22-9.23-16.23-18.75-23.94-28.62c-2.41-3.08-4.73-6.14-7-9.17
					c-1.31-4.76-2.63-9.53-3.83-14.3c46.41,185.08,183.22,364.38,262.95,457.16C2228.04,1500.34,2218.25,1488.68,2207.94,1476.03z" />
				</g>
			</g>
			<g class="st5">
				<g>
					<path class="st4" d="M2042.47,1000.12c-29.19-44.28-36.81-156.36,58.05-240.51c78.47-69.61,151.42-37.97,149.09-2.91
					c-2.33,35.06-33.54,55.7-47.67,170.45C2190.29,1021.84,2119.02,1116.25,2042.47,1000.12z" />
				</g>
			</g>
			<g class="st3">
				<g>
					<path class="st4" d="M2868.78,813c-88.85-34.85-206.97-35.37-285.94,4.82c-32.73-82.34-99.61-148.46-187.89-184.71
					c-116.23-47.73-301.91-43.28-392.48,123.89c-6.6,14.3-12.58,29.62-17.81,46.08c-1.59,4.99-3.04,10.03-4.38,15.06
					c81.44-205.05,281.22-192.92,403.51-136.38c72.97,33.74,146.17,122.44,178.9,204.79c99.33-83.92,278.87-60.86,369.33-42.07
					C2912.56,832.45,2891.44,821.89,2868.78,813z" />
				</g>
			</g>
			<g>
				<path class="st1" d="M2336.3,1586.7c-32.24,0-63.36-13.67-85.15-37.88c-49.9-55.43-144.19-168.29-215.07-301.28
				c-87.93-164.99-113.24-309.27-75.22-428.84c29.65-93.25,85.9-161.48,162.67-197.31c96.98-45.26,206.63-30.54,276.92-1.68
				c86.83,35.66,153.72,98.75,189.85,178.64c79.66-34.19,193.71-34.16,283.77,1.17c89.84,35.24,154.12,93.24,185.88,167.75
				c32.36,75.9,28.67,166.45-10.66,261.84c-47.93,116.24-161.43,208.43-337.35,274.02c-141.59,52.79-288.27,74.58-363.1,82.87
				C2344.65,1586.47,2340.46,1586.7,2336.3,1586.7z M2259.58,621.42c-40.76,0-83.53,7.41-123.81,26.22
				c-70.23,32.78-119.8,93.29-147.32,179.85c-84.2,264.83,196.25,604.25,284.22,701.97c18.38,20.42,45.66,30.82,72.98,27.78
				c132.01-14.62,570.96-82.29,676.87-339.15c36.31-88.05,40.04-170.85,10.8-239.44c-28.65-67.2-87.37-119.81-169.81-152.15
				c-88.36-34.66-201.06-32.91-274.09,4.24l-14.15,7.2l-5.87-14.76c-31.49-79.2-95.39-141.95-179.94-176.67
				C2354.25,632.05,2308.36,621.42,2259.58,621.42z" />
			</g>
			<g>
				<path class="st2" d="M1797.53,2619.73c105.89-116.17,221.59-213.79,398.65-204.75c395.85,20.22,552.72,410.19,408.27,681.6
				c-80.92,152.04-265.26,31.73-468.74,40.98c-236.74,10.76-560.26,188.63-713.18-46.54L1797.53,2619.73z" />
			</g>
			<g class="st3">
				<path class="st4" d="M2656.5,2899.35c-12.13-217.14-173.49-425.92-460.31-440.55c-177.07-9.05-292.76,88.57-398.67,204.73
				L1443.09,3109c-7.17-8.62-14.01-17.92-20.56-27.98l374.99-471.28c105.91-116.19,221.59-213.81,398.67-204.76
				C2506.68,2420.83,2670.15,2664.18,2656.5,2899.35z" />
			</g>
			<g>
				<path class="st4" d="M2600.87,3097.96c-82.6,142.22-264.6,25.48-465.16,34.6c-236.72,10.75-560.25,188.62-713.18-46.55
				l141.2-71.02c152.89,235.17,476.42,57.3,713.18,46.55C2397.44,3056.08,2511.28,3096.08,2600.87,3097.96z" />
			</g>
			<g>
				<path class="st1"
					d="M1728.7,2683l61.44-69.56c9.58-10.84,18.87-21.2,28.46-31.51c9.63-10.26,19.29-20.52,29.39-30.39
				c20.12-19.8,41.19-38.84,63.66-56.35c44.77-34.97,95.68-64.28,151.56-79.98c27.78-8.15,56.56-12.77,85.39-14.51
				c28.91-1.63,57.69-0.23,86.02,2.92c28.41,3.27,56.64,8.59,84.33,16.08c27.68,7.53,54.75,17.48,80.85,29.54
				c52.1,24.38,99.9,58.26,139.76,99.88c39.94,41.55,71.84,90.65,94.09,143.69c44.69,106.04,50.62,228.04,14.58,337.62
				c-4.48,13.68-9.53,27.19-15.34,40.37c-2.77,6.65-5.98,13.11-9.03,19.63c-3.33,6.43-6.39,12.77-10.21,19.37
				c-7.54,12.97-16.61,25.43-27.72,36.26c-11.02,10.88-24.07,19.98-38.14,26.57c-28.36,13.3-59.19,16.41-88.15,15.81
				c-29.18-0.66-57.41-4.76-85.21-9.29c-55.51-9.35-109.72-20.69-164.29-25.31c-27.25-2.33-54.45-3.06-81.51-1.39
				c-27.13,1.66-54.34,5.29-81.51,9.89c-54.36,9.28-108.52,22.2-163.22,34.06c-54.7,11.81-110.06,23.02-166.85,27.9
				c-28.38,2.37-57.11,3.22-85.95,0.94c-28.8-2.25-57.76-7.55-85.52-17.43c-27.74-9.8-54.08-24.39-76.98-43.13
				c-22.97-18.71-42.2-41.44-58.19-65.79l-5.72-8.71l6.53-8.2L1728.7,2683z M1837.58,2592.64l-29.03,36.48l-374.69,470.9l0.81-16.91
				c14.63,22.24,31.88,42.58,52.25,59.16c20.31,16.61,43.5,29.47,68.35,38.27c49.9,17.72,105.07,19.53,159.32,14.92
				c54.49-4.67,108.83-15.6,163.16-27.35c54.36-11.77,108.84-24.8,164.53-34.31c27.85-4.72,56.03-8.5,84.61-10.25
				c28.66-1.78,57.39-0.99,85.73,1.44c56.75,4.83,112.03,16.44,166.54,25.59c27.24,4.45,54.41,8.33,81.07,8.91
				c26.57,0.59,52.81-2.49,75.24-13.06c22.52-10.34,40.29-28.78,53.12-51.12c3.18-5.47,6.21-11.7,9.29-17.66
				c2.85-6.12,5.87-12.15,8.46-18.39c5.45-12.35,10.18-25.01,14.38-37.84c33.83-102.73,28.29-217.72-13.75-317.4
				c-20.91-49.87-50.86-95.93-88.29-134.87c-37.37-39.01-82.14-70.75-131.12-93.68c-24.55-11.34-50.04-20.73-76.21-27.84
				c-26.18-7.08-52.94-12.12-79.96-15.24c-27.12-2.99-54.26-4.32-81.1-2.85c-13.42,0.91-26.83,2.13-40.07,4.42
				c-13.27,2.08-26.43,4.83-39.38,8.44c-12.98,3.46-25.75,7.74-38.27,12.69c-12.59,4.78-24.9,10.34-36.96,16.47
				c-24.15,12.19-47.18,26.83-69.13,43.1c-21.99,16.23-42.87,34.15-63.01,52.97C1854.69,2575.79,1846.12,2584.19,1837.58,2592.64z" />
			</g>
			<g class="st5">
				<g>
					<path class="st8" d="M1189.04,3053.62c-0.28-0.17-0.54-0.34-0.82-0.54l0.28-0.14
					C1188.67,3053.16,1188.84,3053.39,1189.04,3053.62z" />
				</g>
				<g>
					<path class="st1" d="M1201.41,3063.88l-13.65-8.12c-0.34-0.2-0.64-0.4-0.97-0.63l-3.45-2.41l5.63-2.82l1.53,1.54
					c0.13,0.17,0.26,0.35,0.41,0.52L1201.41,3063.88z" />
				</g>
			</g>
			<g class="st5">
				<g>
					<path class="st8" d="M1905.49,2996.67c-4.1,4.98-6.65,7.5-6.65,7.5l-2.26-1.25C1899.57,3000.89,1902.54,2998.79,1905.49,2996.67
					z" />
				</g>
				<g>
					<path class="st1" d="M1899.27,3007.26l-7.48-4.11l3.38-2.29c2.98-2.03,5.94-4.11,8.86-6.22l15.72-11.34l-12.32,14.95
					c-4.14,5.02-6.72,7.58-6.82,7.69L1899.27,3007.26z" />
				</g>
			</g>
			<g>
				<g>
					<path class="st9" d="M1928.23,3090.29" />
				</g>
				<g>
					<path class="st10" d="M1928.23,3090.29" />
				</g>
			</g>
			<g>
				<g>
					<path class="st9" d="M1176.32,3090.29" />
				</g>
				<g>
					<path class="st10" d="M1176.32,3090.29" />
				</g>
			</g>
			<g>
				<path class="st11" d="M1928.23,3090.29" />
			</g>
			<g>
				<path class="st11" d="M1176.32,3090.29" />
			</g>
			<g class="st5">
				<path class="st1" d="M2572.42,3138.94c-91.69,83.61-256.71-9.56-436.71-1.38c-236.72,10.75-560.25,188.62-713.18-46.55
				l191.84-46.83c152.89,235.17,369.53,69.92,606.29,59.14C2354.04,3097.28,2479.18,3146.9,2572.42,3138.94z" />
			</g>
			<g>
				<g>
					<path class="st2" d="M1329.92,3109.51c0,0-238.66-70.95-328.25-207.43c-6.65-10.15-15.18-18.49-29.5-45.23
					c0,0-77.01-5.36-90.02-31.12c-21.38-42.31,40.7-50.59,63.43-77.81c1.69-2.05-0.08-5.11-2.71-4.68
					c-18.01,3.03-71.77-5.74-81.46-23.03c-11.41-20.36,13.19-43.26,42.21-70.99c64.9-61.91,99.43-149.53,93.02-238.97
					c-10.19-141.63,17.7-341.03,60.33-340.88c98.76,0.39,223,188.63,232.13,202.67c59-28.04,128.92-45.15,212.19-45.15
					c83.26,0,153.19,17.11,212.19,45.15c9.12-14.04,133.37-202.28,232.13-202.67c42.63-0.16,70.52,199.25,60.33,340.88
					c-6.41,89.44,28.12,177.06,93.02,238.97c29.03,27.73,53.62,50.63,42.21,70.99c-9.68,17.29-63.44,26.05-81.46,23.03
					c-2.64-0.43-4.41,2.64-2.71,4.68c22.73,27.22,84.81,35.5,63.43,77.81c-13.01,25.76-90.02,31.12-90.02,31.12
					c-14.32,26.74-22.85,35.08-29.5,45.23c-89.59,136.48-328.25,207.43-328.25,207.43" />
					<path class="st1" d="M1673.36,3111.9l-1.43-4.79c2.38-0.71,238.82-72.27,326.88-206.4c1.96-3,4.03-5.76,6.42-8.96
					c5.74-7.68,12.88-17.23,22.97-36.08l0.65-1.22l1.38-0.1c0.75-0.05,75.74-5.55,87.97-29.75c13.12-25.98-7.25-37.79-30.85-51.47
					c-11.97-6.94-24.34-14.12-32.27-23.61c-1.45-1.75-1.65-4.14-0.52-6.11c1.13-1.97,3.3-3.04,5.56-2.64
					c18.65,3.12,70.13-6.17,78.87-21.78c10.25-18.3-13.12-40.62-40.19-66.46l-1.57-1.51c-66.06-63.02-100.24-150.84-93.78-240.96
					c9.53-132.49-13.15-296.8-45.78-331.74c-4-4.28-8.04-6.46-12.01-6.46c-0.01,0-0.03,0-0.04,0
					c-98.18,0.39-224.7,193.32-230.04,201.53l-1.19,1.84l-1.98-0.94c-62.69-29.8-133.72-44.91-211.11-44.91
					s-148.42,15.11-211.11,44.91l-1.98,0.94l-1.19-1.84c-5.34-8.21-131.86-201.14-230.04-201.53c-0.01,0-0.03,0-0.04,0
					c-3.96,0-8,2.17-12.01,6.46c-32.63,34.93-55.31,199.25-45.78,331.74c6.46,90.11-27.72,177.94-93.78,240.96l-1.57,1.5
					c-27.06,25.84-50.43,48.16-40.19,66.46c8.75,15.61,60.23,24.92,78.86,21.78c2.25-0.38,4.44,0.67,5.57,2.64
					c1.13,1.97,0.93,4.36-0.51,6.1c-7.93,9.5-20.31,16.67-32.28,23.61c-23.59,13.68-43.97,25.5-30.85,51.47
					c12.23,24.2,87.21,29.7,87.97,29.75l1.38,0.1l0.65,1.22c10.09,18.86,17.23,28.41,22.97,36.09c2.39,3.2,4.45,5.95,6.41,8.95
					c88.06,134.14,324.49,205.7,326.87,206.4l-1.43,4.79c-2.4-0.71-240.56-72.78-329.63-208.45c-1.88-2.87-3.9-5.57-6.24-8.7
					c-5.71-7.65-12.8-17.12-22.72-35.52c-10.87-0.88-78.03-7.31-90.7-32.38c-15.25-30.19,9.18-44.36,32.8-58.06
					c11.59-6.72,23.58-13.67,30.94-22.48l-0.8-3.08l0.42,2.47c-17.64,2.97-73.32-5.11-84.05-24.27
					c-12.15-21.68,12.53-45.24,41.09-72.52l1.58-1.5c64.98-61.99,98.6-148.36,92.25-236.99c-8.62-119.89,10.47-296.28,47.11-335.51
					c5-5.36,10.28-8.27,15.72-8.04c96.7,0.39,214.7,174.09,233.02,201.98c62.88-29.5,133.96-44.46,211.28-44.46
					c77.33,0,148.4,14.96,211.29,44.46c18.32-27.88,136.32-201.59,233.02-201.98c0.02,0,0.04,0,0.06,0c5.41,0,10.67,2.71,15.66,8.04
					c36.64,39.23,55.74,215.62,47.11,335.51c-6.35,88.62,27.27,175,92.25,236.98l1.58,1.51c28.56,27.28,53.24,50.83,41.09,72.51
					c-10.73,19.15-66.41,27.24-84.06,24.27l-2.3,2.21l1.92-1.6c7.36,8.81,19.35,15.76,30.94,22.48
					c23.63,13.7,48.06,27.87,32.8,58.06c-12.67,25.07-79.83,31.5-90.7,32.38c-9.93,18.39-17.01,27.86-22.72,35.51
					c-2.34,3.13-4.36,5.83-6.24,8.7C1913.92,3039.12,1675.75,3111.19,1673.36,3111.9z" />
				</g>
				<g class="st3">
					<path class="st4"
						d="M2007.85,2366.03c-2.29-126.26-27.32-260.05-62.25-259.91c-83.48,0.33-185.14,146.98-220.14,200.85
					c-6.95,10.69-20.71,14.62-32.25,9.2c-54.59-25.65-118.01-48.81-191.94-48.81c-73.92,0-137.35,23.16-191.94,48.81
					c-11.54,5.42-25.3,1.49-32.25-9.2c-34.99-53.88-136.66-200.51-220.11-200.85c-34.93-0.14-59.96,133.76-62.28,260.05
					c-2.49-135.52,23.92-296.93,62.28-296.79c98.74,0.4,222.99,188.62,232.11,202.66c59-28.03,128.95-45.15,212.2-45.15
					c83.26,0,153.18,17.13,212.18,45.15c9.14-14.04,133.36-202.27,232.13-202.66C1983.96,2069.24,2010.37,2230.54,2007.85,2366.03z" />
				</g>
				<g>
					<g>
						<path class="st12" d="M996.63,2410.25c0.96,13.25,0.99,26.47,0.17,39.55c-0.03-0.93-0.11-1.87-0.17-2.8
						c-1.84-25.48-2.43-52.8-1.92-80.51C994.98,2381.46,995.61,2396.15,996.63,2410.25z" />
					</g>
					<g>
						<path class="st1" d="M999.29,2449.95l-4.99-0.08c-0.02-0.58-0.06-1.16-0.1-1.75l-0.07-0.98c-1.8-24.98-2.45-52.14-1.93-80.71h5
						c0.29,15.35,0.94,30.03,1.92,43.63l0,0C1000.07,2423.18,1000.13,2436.6,999.29,2449.95z" />
					</g>
				</g>
				<g>
					<path class="st4"
						d="M1898.85,3004.18l-4.64-2.58c-7.16,7.9-16.9,15.31-29.81,22.05c-107.72,56.08-339.57,169.54-607.34,59.7
					c0,0-97.1-31.82-142.51-82.95l-6.77,3.76c0,0-96.02-94.89-59.05-273.44c36.97-178.57,162.64-235.39,238.7-226.36
					c76.04,9,175.23,45.1,166.23,203.8c-3.34,58.66-19.67,102.08-24.97,114.79l150.32,2.55c-3.54-8.1-22.42-53.76-26.04-117.34
					c-9-158.7,90.19-194.79,166.23-203.8c76.07-9.03,201.73,47.79,238.7,226.36C1994.88,2909.29,1898.85,3004.18,1898.85,3004.18z" />
				</g>
				<g>
					<g>
						<path class="st13" d="M1089.07,2408.14c38.28-43.36,90.29-83.62,110.59-98.72c5.22-3.89,7.41-10.71,5.32-16.87
						c-23.26-68.35-81.6-129.35-110.59-156.64c-8.13-7.65-21.42-4.21-24.78,6.44c-7.18,22.73-17.08,62.91-19.89,117.99
						c-3.33,65.12,5.9,113.94,13.49,141.86C1066.35,2413.78,1081.12,2417.14,1089.07,2408.14z" />
					</g>
					<g>
						<path class="st1" d="M1077.82,2415.79c-1.36,0-2.74-0.16-4.12-0.48c-6.38-1.49-11.21-6.14-12.92-12.45
						c-8.01-29.47-16.87-78.13-13.57-142.64c2.79-54.52,12.42-94.6,20.01-118.62c1.84-5.82,6.45-10.21,12.34-11.75
						c5.9-1.53,12.08,0.05,16.54,4.24c31.64,29.79,88.17,89.88,111.24,157.65c2.45,7.2-0.04,15.1-6.19,19.68
						c-20.46,15.22-72.15,55.27-110.2,98.37l0,0C1087.51,2413.68,1082.8,2415.79,1077.82,2415.79z M1084.02,2134.28
						c-1.06,0-2.14,0.14-3.2,0.41c-4.22,1.1-7.52,4.24-8.84,8.41c-7.5,23.74-17.02,63.37-19.78,117.37
						c-3.27,63.85,5.49,111.96,13.4,141.07c1.23,4.51,4.68,7.83,9.23,8.9c4.61,1.06,9.22-0.41,12.36-3.96l0,0
						c38.36-43.45,90.38-83.76,110.97-99.07c4.4-3.27,6.19-8.92,4.44-14.06c-22.72-66.75-78.63-126.15-109.94-155.62
						C1090.28,2135.48,1087.2,2134.28,1084.02,2134.28z" />
					</g>
				</g>
				<g>
					<path class="st14" d="M1199.67,2309.43c-17.81,13.25-60.05,45.86-95.99,82.96c-5.03,5.18-9.92,10.42-14.59,15.75
					c-7.96,9.01-22.73,5.65-25.88-5.94c-7.6-27.91-16.83-76.74-13.5-141.85c2.82-55.09,12.7-95.27,19.91-118
					c3.37-10.64,16.65-14.08,24.76-6.44c14.88,14.01,37.5,36.92,59.11,65.12c20.56,26.75,40.18,58.28,51.51,91.54
					C1207.05,2298.71,1204.88,2305.52,1199.67,2309.43z" />
				</g>
				<g class="st5">
					<path class="st1" d="M1199.67,2309.43c-17.81,13.25-60.05,45.86-95.99,82.96c-1.99-21.28-2.82-45.79-1.41-73.19
					c2.82-55.09,12.74-95.27,19.91-118c3.37-10.64,16.65-14.08,24.79-6.44c2.03,1.92,4.2,3.98,6.52,6.26
					c20.56,26.75,40.18,58.28,51.51,91.54C1207.05,2298.71,1204.88,2305.52,1199.67,2309.43z" />
				</g>
				<g>
					<path class="st1" d="M1083.67,2403.37c18.46-22.57,39.04-43.12,60.38-62.71c10.68-9.79,21.61-19.3,32.73-28.6l15.73-12.81
					c0.41-0.51,0.59-1.18,0.54-1.73c-0.02-0.27-0.08-0.51-0.2-0.72l-1.62-3.93c-4.89-12.57-11.11-24.75-18.02-36.55
					c-6.86-11.84-14.66-23.21-22.9-34.31c-16.46-22.2-35.16-42.94-54.85-62.59l-7.49-7.26l-3.79-3.57l-0.92-0.87
					c-0.01,0.03,0.01,0.06,0.01,0.06c0.05-0.05,0.06,0.13,0.16,0.09c0.72,0.33,1.03,0.17,1.5-0.39c0-0.04,0.26-0.55,0,0.02
					l-1.52,4.88c-0.99,3.27-1.93,6.56-2.83,9.86c-1.81,6.62-3.43,13.31-4.89,20.06c-5.97,26.96-9.73,54.62-11.57,82.46
					c-1.01,13.89-1.47,27.83-1.32,41.76c0.03,13.94,0.62,27.88,1.89,41.76c1.16,13.9,2.95,27.75,5.47,41.47
					c0.6,3.37,1.3,7,1.96,10.11c0.29,1.46,0.83,2.78,2.06,3.75c2.39,2.19,6.63,2.43,9.6-0.2L1083.67,2403.37z M1094.38,2412.83
					c-3.23,4.01-8.13,7.11-13.5,8.04c-5.35,0.97-11.05,0.07-15.92-2.79c-4.92-2.75-8.7-7.73-10.48-13.07
					c-1.27-3.78-2.3-7.09-3.38-10.68c-4.11-14.13-7.39-28.49-9.87-42.98c-2.41-14.5-4.17-29.11-5.23-43.78
					c-0.95-14.67-1.26-29.38-0.98-44.08c0.65-29.34,3.61-58.73,9.46-87.79c1.49-7.26,3.15-14.49,5.04-21.71
					c0.94-3.61,1.93-7.21,2.97-10.8l1.61-5.39c0.88-2.81,2.54-6.67,4.77-9.53c8.85-12.36,26.51-16.46,39.92-9.1
					c1.58,0.95,3.24,1.89,4.6,3.07l2.08,1.77l1.02,0.98l3.97,3.84l7.82,7.78c20.71,20.88,39.69,43.5,56.5,67.9
					c8.48,12.13,16.16,24.91,23.08,38.15c6.91,13.24,13.19,26.92,17.81,41.37l0.92,2.68c0.3,0.89,0.58,1.58,1.08,3.49
					c0.82,3.24,1.01,6.64,0.62,9.92c-0.77,6.58-3.95,12.73-8.77,17.11c-2.95,2.56-3.85,2.92-5.39,4.08l-4.31,3.07l-8.58,6.22
					c-11.44,8.32-22.73,16.86-33.79,25.69c-22.07,17.69-43.45,36.31-62.98,56.59L1094.38,2412.83z" />
				</g>
				<g>
					<path class="st14" d="M1804.49,2309.43c17.81,13.25,60.05,45.86,95.99,82.96c5.03,5.18,9.92,10.42,14.59,15.75
					c7.96,9.01,22.73,5.65,25.88-5.94c7.6-27.91,16.83-76.74,13.5-141.85c-2.82-55.09-12.71-95.27-19.91-118
					c-3.37-10.64-16.65-14.08-24.76-6.44c-14.88,14.01-37.5,36.92-59.11,65.12c-20.56,26.75-40.18,58.28-51.51,91.54
					C1797.11,2298.71,1799.28,2305.52,1804.49,2309.43z" />
				</g>
				<g class="st5">
					<path class="st1" d="M1804.49,2309.43c17.81,13.25,60.05,45.86,95.99,82.96c1.99-21.28,2.82-45.79,1.41-73.19
					c-2.82-55.09-12.74-95.27-19.91-118c-3.37-10.64-16.65-14.08-24.79-6.44c-2.03,1.92-4.2,3.98-6.52,6.26
					c-20.56,26.75-40.18,58.28-51.51,91.54C1797.11,2298.71,1799.28,2305.52,1804.49,2309.43z" />
				</g>
				<g>
					<path class="st1" d="M1909.7,2412.9c-19.53-20.28-40.9-38.9-62.98-56.59c-11.06-8.83-22.35-17.37-33.79-25.69l-8.58-6.22
					l-4.31-3.07c-1.54-1.16-2.44-1.52-5.39-4.08c-4.82-4.38-8.01-10.53-8.77-17.11c-0.39-3.28-0.21-6.68,0.62-9.92
					c0.5-1.91,0.79-2.61,1.08-3.49l0.92-2.68c4.62-14.44,10.9-28.13,17.81-41.37c6.93-13.24,14.6-26.01,23.08-38.15
					c16.81-24.4,35.79-47.02,56.5-67.9l7.82-7.78l3.97-3.84l1.02-0.98l2.08-1.77c1.36-1.18,3.03-2.12,4.6-3.07
					c13.41-7.36,31.07-3.27,39.92,9.1c2.23,2.86,3.89,6.72,4.77,9.53l1.61,5.39c1.05,3.59,2.03,7.19,2.97,10.8
					c1.88,7.21,3.55,14.45,5.04,21.71c5.85,29.06,8.81,58.44,9.46,87.79c0.27,14.7-0.03,29.41-0.98,44.08
					c-1.06,14.67-2.83,29.28-5.23,43.78c-2.48,14.49-5.75,28.85-9.87,42.98c-1.08,3.59-2.11,6.9-3.38,10.68
					c-1.78,5.34-5.56,10.32-10.48,13.07c-4.87,2.86-10.57,3.75-15.92,2.79c-5.37-0.93-10.27-4.04-13.5-8.04L1909.7,2412.9z
					 M1920.4,2403.45c2.97,2.63,7.21,2.39,9.6,0.2c1.23-0.97,1.77-2.29,2.06-3.75c0.66-3.11,1.36-6.75,1.96-10.11
					c2.51-13.71,4.31-27.57,5.47-41.47c1.27-13.89,1.86-27.83,1.89-41.76c0.15-13.93-0.31-27.87-1.31-41.76
					c-1.85-27.84-5.6-55.5-11.57-82.46c-1.46-6.75-3.08-13.44-4.89-20.06c-0.9-3.31-1.84-6.6-2.83-9.86l-1.52-4.88
					c-0.26-0.57-0.01-0.06,0-0.02c0.47,0.55,0.77,0.71,1.5,0.39c0.1,0.05,0.1-0.13,0.15-0.09c0,0,0.02-0.03,0.01-0.06l-0.93,0.87
					l-3.79,3.57l-7.49,7.26c-19.69,19.65-38.39,40.39-54.85,62.59c-8.24,11.09-16.04,22.46-22.9,34.31
					c-6.91,11.81-13.13,23.98-18.02,36.55l-1.62,3.93c-0.12,0.21-0.18,0.45-0.2,0.72c-0.06,0.55,0.12,1.22,0.54,1.73l15.73,12.81
					c11.12,9.3,22.04,18.81,32.73,28.6c21.34,19.59,41.91,40.13,60.38,62.71L1920.4,2403.45z" />
				</g>
				<g>
					<path class="st1"
						d="M1500.21,3146.02c-101.59,0-169.87-21.18-174.57-22.68c-11.98-3.57-245.05-74.66-336.08-213.32
					c-1.68-2.57-3.6-5.13-5.82-8.1c-5.05-6.76-11.74-15.71-20.52-31.29c-25.75-2.49-80.15-10.96-94-38.37
					c-20.35-40.28,14.45-60.47,37.49-73.82c1.24-0.72,2.49-1.44,3.73-2.17c-24.18-3.53-52.3-12.28-61.66-28.98
					c-16.68-29.79,12.44-57.6,43.27-87.04l1.57-1.5c62.39-59.52,94.67-142.42,88.57-227.47c-8.98-124.81,11.04-302.51,50.31-344.54
					c9.14-9.78,18.3-11.85,24.42-11.85c0.03,0,0.07,0,0.1,0c95.33,0.38,206.55,153.65,237.27,198.84
					c62.13-27.43,131.7-41.32,206.99-41.32c75.29,0,144.86,13.89,206.99,41.32c30.72-45.19,141.94-198.46,237.27-198.84
					c0.03,0,0.07,0,0.1,0c6.12,0,15.29,2.07,24.42,11.85c39.26,42.03,59.28,219.73,50.31,344.54
					c-6.1,85.04,26.19,167.95,88.57,227.46l1.58,1.51c30.83,29.44,59.95,57.25,43.27,87.03c-9.36,16.7-37.48,25.45-61.67,28.98
					c1.25,0.73,2.49,1.45,3.74,2.17c23.03,13.35,57.84,33.54,37.49,73.82c-13.85,27.41-68.24,35.88-94,38.37
					c-8.78,15.58-15.47,24.53-20.52,31.29c-2.22,2.97-4.14,5.54-5.82,8.1c-91.46,139.31-326.29,210.42-336.24,213.38
					c-3.87,1.03-85.99,22.5-175.47,22.63C1500.94,3146.02,1500.57,3146.02,1500.21,3146.02z M1334.36,3095.72
					c0.67,0.21,67.67,21.34,165.88,21.34c0.34,0,0.68,0,1.03,0c85.6-0.13,166.87-21.34,167.68-21.55
					c1.91-0.58,234.24-70.97,319.85-201.38c2.16-3.29,4.43-6.33,6.84-9.55c5.5-7.36,12.34-16.51,22-34.57l3.77-7.05l7.98-0.56
					c32.56-2.29,72.65-12.39,78.11-23.21c6.75-13.36,2.59-19.03-26.16-35.71c-12.87-7.46-26.17-15.18-35.46-26.29
					c-4.7-5.67-5.35-13.41-1.72-19.75c3.64-6.35,10.67-9.69,17.89-8.5c17.91,3,61.36-7.35,66.49-15.83
					c5.7-10.18-16.52-31.4-38.01-51.93l-1.58-1.51c-68.65-65.49-104.17-156.78-97.46-250.48c4.71-65.5,1.11-147.95-9.4-215.19
					c-13.69-87.6-32.33-109.19-36.57-110.18c-73.3,0.31-175.91,128.4-219.91,196.09l-6.91,10.63l-11.45-5.44
					c-61.07-29.03-130.37-43.75-205.97-43.75c-75.6,0-144.9,14.72-205.97,43.75l-11.45,5.44l-6.91-10.63
					c-44-67.69-146.61-195.79-220.05-196.08c-4.1,0.98-22.74,22.57-36.43,110.17c-10.51,67.24-14.11,149.69-9.4,215.19
					c6.72,93.69-28.81,184.99-97.46,250.49l-1.57,1.5c-21.49,20.52-43.72,41.75-38.01,51.94c5.12,8.46,48.56,18.83,66.42,15.82
					c7.28-1.21,14.3,2.15,17.95,8.49c3.64,6.34,2.98,14.07-1.68,19.7c-9.32,11.16-22.63,18.88-35.5,26.34
					c-28.76,16.67-32.91,22.35-26.16,35.71c5.48,10.85,45.56,20.94,78.11,23.2l7.98,0.56l3.77,7.05
					c9.67,18.06,16.51,27.22,22.01,34.57c2.4,3.22,4.67,6.25,6.84,9.56c85.6,130.4,317.93,200.79,320.27,201.49L1334.36,3095.72z" />
				</g>
				<g>
					<path class="st1" d="M1590.16,2842.24c0,25.24-70.07,57.44-90.18,57.44c-20.77,0-90.18-32.21-90.18-57.44
					c0-25.24,22.82-45.69,90.18-45.69C1565.49,2796.55,1590.16,2817,1590.16,2842.24z" />
				</g>
				<g class="st15">
					<path class="st4" d="M1539.07,2827.94c0,4.38-30.37,9.98-39.09,9.98c-9,0-39.09-5.59-39.09-9.98c0-4.38,9.89-7.94,39.09-7.94
					C1528.37,2820,1539.07,2823.55,1539.07,2827.94z" />
					<path class="st1" d="M1499.98,2840.69c-2.63,0-41.87-3.92-41.87-12.76c0-4.99,4.76-10.72,41.87-10.72
					c37.53,0,41.87,6.12,41.87,10.72C1541.85,2836.78,1502.61,2840.69,1499.98,2840.69z M1463.98,2827.5
					c4.52,2.98,27.34,7.62,36,7.62c8.61,0,31.28-4.61,35.95-7.6c-1.38-1.25-7.75-4.75-35.95-4.75
					C1471.25,2822.78,1465.21,2826.27,1463.98,2827.5z" />
				</g>
				<g>
					<path class="st14" d="M1563.3,2938.66c-1.55,22.61-6.26,43.33-13.24,60.49c-12,29.6-30.73,48.61-51.72,48.52
					s-39.58-19.3-51.3-49.07c-6.83-17.19-11.33-37.92-12.68-60.5L1563.3,2938.66z" />
				</g>
				<g>
					<path class="st1" d="M1497.13,3001.53c-3.64-11.95-5.75-23.89-7.43-35.84c-0.8-5.97-1.59-11.94-1.77-17.91
					c-0.15-5.97-0.14-11.94,0.94-17.9c1-5.52,6.29-9.18,11.81-8.17c4.3,0.78,7.47,4.19,8.19,8.26c1.04,5.97,0.99,11.94,0.79,17.91
					c-0.24,5.97-1.08,11.93-1.93,17.89c-1.78,11.93-4,23.85-7.74,35.77c-0.25,0.79-1.09,1.23-1.88,0.98
					C1497.62,3002.37,1497.27,3001.98,1497.13,3001.53z" />
				</g>
				<g>
					<path class="st1" d="M1498.54,3060.33c-0.08,0-0.17,0-0.25,0c-42.82-0.19-77.45-47.4-77.2-105.26c0.03-7,5.62-12.59,12.72-12.61
					c7,0.03,12.64,5.73,12.61,12.72c-0.19,43.14,23.62,79.69,51.98,79.81c0.05,0,0.1,0,0.14,0c28.3,0,52.33-36.29,52.52-79.36
					c0.03-6.98,5.7-12.61,12.67-12.61c0.02,0,0.04,0,0.05,0c7,0.03,12.64,5.73,12.61,12.72
					C1576.15,3013.48,1541.25,3060.33,1498.54,3060.33z" />
				</g>
				<g class="st5">
					<path class="st1" d="M1610.09,2918.68c16.49,26-17.02,78.68-61.01,74.06c-38.37-4.03-50.39-32.37-50.39-32.37l-0.76,0
					c0,0-12.33,27.65-50.67,31.94c-40.47,4.52-78-49.87-59.74-78.6" />
				</g>
				<g>
					<g>
						<path class="st4" d="M1610.09,2910.14c-3.84,36.85-27.32,54.94-60.87,50.95c-38.31-4.56-48.02-34.89-50.33-46.18l-0.76,0
						c-2.41,11.27-12.38,41.52-50.73,45.74c-33.59,3.7-56.91-14.58-60.43-51.47" />
					</g>
					<g>
						<path class="st1" d="M1558.06,2964.12c-2.96,0-6.01-0.18-9.13-0.55c-32.95-3.92-45.63-25.88-50.45-40.53
						c-4.95,14.61-17.82,36.46-50.8,40.1c-17.16,1.88-31.99-1.83-42.94-10.73c-11.45-9.31-18.45-24.18-20.25-42.98l4.98-0.47
						c1.67,17.44,8.04,31.13,18.43,39.58c9.9,8.05,23.46,11.38,39.24,9.64c36.25-3.99,46.04-31.95,48.56-43.78l0.42-1.98l4.83,0.02
						l0.41,1.99c2.42,11.86,11.97,39.89,48.18,44.2c15.77,1.88,29.37-1.34,39.32-9.31c10.46-8.36,16.95-21.99,18.77-39.41l4.97,0.52
						c-1.96,18.79-9.09,33.59-20.62,42.8C1582.94,2960.41,1571.35,2964.12,1558.06,2964.12z" />
					</g>
				</g>
				<g class="st5">
					<path class="st1" d="M1610.09,2910.14c-3.85,36.85-27.3,54.94-60.88,50.93c-38.3-4.55-48.01-34.87-50.34-46.17l-0.76,0
					c-2.4,11.28-12.37,41.51-50.74,45.73c-33.57,3.72-56.9-14.57-60.4-51.46l1.15,0c5.27,0.02,10.1,2.51,13.67,6.38
					c10.7,11.61,26.53,16.69,45.71,14.55c19.41-2.13,31.53-10.91,39.1-20.51l23.85,0.1c7.48,9.66,19.53,18.55,38.89,20.85
					c19.19,2.3,35.07-2.64,45.87-14.16c3.61-3.85,8.45-6.29,13.73-6.27L1610.09,2910.14z" />
				</g>
				<g>
					<path class="st1" d="M1612.03,2910.34c8.5,14.84,4.33,33.06-7.74,46.08c-5.77,6.7-13.5,11.9-21.7,15.06
					c-8.21,3.26-16.84,4.29-25,4.27c-8.16-0.29-16.11-1.19-24.09-3.93c-7.91-2.61-15.64-6.62-22.26-12.09
					c-6.64-5.43-12.11-12.14-16.16-19.37c-4.13-7.22-6.9-14.87-8.58-22.93l12.36,10.13l-0.76,0l12.44-10.02
					c-1.77,8.04-4.67,15.63-8.9,22.78c-4.23,7.11-9.83,13.66-16.56,18.84c-6.72,5.21-14.46,8.94-22.33,11.27l-5.92,1.58l-5.93,1.04
					c-1.98,0.43-3.95,0.56-5.94,0.77c-1.97,0.23-3.96,0.42-6.01,0.42c-8.07,0.31-16.67-0.61-24.83-3.85
					c-8.12-3.26-15.54-8.86-20.77-15.77c-5.31-6.89-8.39-14.86-9.57-22.63c-1.17-7.8-0.75-15.44,1.29-22.63
					c0.31-1.11,1.47-1.75,2.57-1.43c0.55,0.16,0.99,0.52,1.25,0.99l0.04,0.07c3.52,6.36,6.64,12.18,10.24,17.16
					c3.55,5,7.45,9.07,11.55,12.09c4.11,3.04,8.37,5.14,13.04,6.65c4.62,1.58,9.74,2.66,15.27,2.97c5.52,0.25,11.46-0.13,16.58-1.74
					c5.18-1.55,9.91-3.86,13.98-7c8.13-6.16,13.83-16.15,16.18-26.87l2.21-10.07l10.24,0.04l0.76,0l10.22,0.04l2.14,10.09
					c1.12,5.28,3.19,10.58,5.91,15.14c2.82,4.54,6.3,8.43,10.4,11.41c8.08,5.99,18.96,8.48,30.13,8.46
					c10.97,0.1,20.27-2.88,27.46-9.27c3.68-3.22,6.36-7.56,9.82-12.18c3.54-4.67,7.22-9.93,13.15-16l0.08-0.08
					c0.92-0.94,2.44-0.96,3.38-0.04C1611.78,2909.97,1611.92,2910.15,1612.03,2910.34z" />
				</g>
				<g>
					<path class="st1"
						d="M1500.58,2842.56l11.33,83.27c1.02,7.52-4.24,14.44-11.76,15.46c-7.52,1.02-14.44-4.24-15.46-11.76
					c-0.17-1.24-0.15-2.52,0-3.7l11.33-83.27c0.17-1.26,1.33-2.14,2.59-1.97C1499.66,2840.73,1500.44,2841.56,1500.58,2842.56z" />
				</g>
				<g class="st5">
					<path class="st1" d="M2117.93,2823.23c-13.03,25.77-90.02,31.13-90.02,31.13c-14.33,26.75-22.88,35.07-29.5,45.21
					c-89.62,136.5-328.27,207.44-328.27,207.44s-73.73,22.03-171.36,22.03c-97.63,0-171.35-22.03-171.35-22.03
					s-238.68-70.95-328.27-207.44c-6.66-10.14-15.17-18.46-29.5-45.21c0,0-76.99-5.36-90.02-31.13
					c-11.4-22.55,0.9-35.44,18.35-46.69c7.82,3.72,17.11,6.62,26.37,8.87c29.66,7.2,55.81,24.99,73.24,50.04
					c0.53,0.76,1.05,1.53,1.56,2.3c89.59,136.46,246.82,241.91,496.63,241.91s412.99-105.45,502.61-241.91
					c0.47-0.73,0.96-1.44,1.45-2.16c17.38-25.16,43.62-42.97,73.34-50.19c9.25-2.25,18.53-5.15,26.35-8.86
					C2116.99,2787.79,2129.33,2800.68,2117.93,2823.23z" />
				</g>
				<g>
					<g>

						<ellipse transform="matrix(0.9988 -0.0482 0.0482 0.9988 -129.8657 65.4431)" class="st1"
							cx="1291.26" cy="2723.96" rx="86.95" ry="112.7" />
					</g>
					<g>

						<ellipse transform="matrix(0.9996 -0.0266 0.0266 0.9996 -71.3625 34.4354)" class="st4"
							cx="1260.09" cy="2702.52" rx="23.31" ry="38.87" />
					</g>
					<g>
						<path class="st4" d="M1322.62,2754.26c1.21,10.67,7.35,18.5,13.71,17.49s10.54-10.47,9.33-21.13
						c-1.21-10.67-7.35-18.5-13.71-17.49C1325.59,2734.13,1321.41,2743.59,1322.62,2754.26z" />
					</g>
				</g>
				<g>
					<g>

						<ellipse transform="matrix(0.064 -0.998 0.998 0.064 -1107.256 4267.3965)" class="st1"
							cx="1721.26" cy="2723.96" rx="112.7" ry="86.95" />
					</g>
					<g>

						<ellipse transform="matrix(0.0856 -0.9963 0.9963 0.0856 -1141.4542 4154.5967)" class="st4"
							cx="1692.69" cy="2699.16" rx="38.87" ry="23.31" />
					</g>
					<g>

						<ellipse transform="matrix(0.0239 -0.9997 0.9997 0.0239 -1037.6033 4451.4658)" class="st4"
							cx="1760.68" cy="2757.06" rx="19.45" ry="11.65" />
					</g>
				</g>
			</g>
			<g>
				<path class="st2" d="M1946.62,3241.56c-8.18,23.31-15.35,45.64-15.2,72.18c0.47,89.44,3.58,174.03-101.82,182.57
				c-77.06,6.26-134.72-105.55-127.38-197.99c0.18-2.39,0.4-4.74,0.58-7.06c7.93-85.24,31.17-123.68,16.98-156.88l239.08-79.96
				C1982.49,3146.36,1962.62,3195.8,1946.62,3241.56z" />
			</g>
			<g>
				<path class="st4" d="M1931.41,3313.73c0.47,89.44,3.58,174.03-101.82,182.57c-77.06,6.26-134.72-105.55-127.38-197.99
				c0.18-2.39,0.4-4.74,0.58-7.06c17.34-12.2,48.5-28.38,95.12-32.29c60.59-5.07,114.63,2.93,148.69-17.41
				C1938.44,3264.87,1931.27,3287.2,1931.41,3313.73z" />
			</g>
			<g class="st5">
				<path class="st1" d="M1946.62,3241.56c-8.18,23.31-15.35,45.64-15.2,72.18c0.47,89.44,3.58,174.03-101.82,182.57
				c-64.03,5.21-114.67-71.09-125.71-150.07c23.13,43.73,59,74.64,100.55,71.27c105.4-8.54,102.29-93.13,101.82-182.57
				c-0.14-26.53,7.02-48.87,15.2-72.18c10.32-29.5,22.26-60.59,23.09-103.56l14.3-4.78
				C1982.49,3146.36,1962.62,3195.8,1946.62,3241.56z" />
			</g>
			<g>
				<path class="st1" d="M1724.19,3132.48c7.89,8.27,11.37,20.25,12.3,31.09c1.04,11.04-0.38,21.33-1.88,31.14
				c-3.01,19.73-7.79,38-11.46,56.66c-1.84,9.3-3.35,18.65-4.48,28.04c-0.68,4.68-0.99,9.41-1.47,14.12
				c-0.52,4.79-0.77,9.29-1.01,13.76c-0.56,18.05,1.15,36.38,5.13,54.24c7.85,35.53,23.74,70.43,48.34,95.3
				c12.25,12.27,26.95,21.38,42.49,24.19c7.94,1.5,15.11,1.21,24.48,0c8.8-1.21,17.35-3.06,25.29-5.9
				c15.98-5.6,28.84-15.48,37.31-29.38c8.5-13.94,12.83-31.39,15.11-49.51c2.27-18.19,2.65-37.17,2.68-56.38l-0.04-14.48l-0.04-7.28
				c-0.03-2.41-0.05-4.83,0.11-7.59c0.21-10.68,1.41-21.32,3.55-31.57c4.24-20.6,11.48-39.39,17.65-57.45
				c6.27-18.07,11.45-35.73,14.19-53.79c1.6-8.99,2.08-18.11,2.6-27.21c-0.04-4.58-0.18-9.15-0.38-13.72
				c-0.08-4.56-1.07-9.14-1.45-13.7c-0.7-9.12-2.03-18.28-2.14-27.68c-0.16-9.44-0.21-19.02,3.07-29.73l0.13-0.42
				c0.87-2.85,3.89-4.46,6.74-3.58c0.99,0.3,1.84,0.88,2.48,1.6c14.6,16.61,19.29,36.92,20.53,57.34
				c0.83,20.43,0.18,41.19-2.97,61.55c-3.09,20.38-8.96,40.14-15.42,58.75c-6.42,18.65-13.1,36.31-16.67,53.84
				c-1.84,8.76-2.78,17.49-2.97,26.23c-0.15,2.09-0.14,4.53-0.11,6.98l0.04,7.29l0.04,14.66c-0.04,19.62-0.38,39.58-2.91,59.97
				c-2.62,20.25-7.38,41.54-19.14,61c-5.9,9.62-13.64,18.45-22.68,25.5c-9.03,7.08-19.2,12.34-29.54,16.02
				c-10.36,3.7-20.9,5.94-31.34,7.36c-5.19,0.56-10.27,1.22-16.28,1.26c-5.78,0.05-11.57-0.5-17.25-1.52
				c-22.92-4.23-42.5-17.03-57.58-32.1c-15.21-15.22-26.81-32.9-36.04-51.42c-9.05-18.61-15.86-38.14-20.19-58.24
				c-4.45-20.07-6.44-40.72-5.78-61.5c0.27-5.23,0.58-10.43,1.11-15.3c0.49-4.96,0.87-9.93,1.51-14.87
				c1.11-9.9,2.37-19.79,3.76-29.65c2.69-19.68,6.64-39.3,11.48-57.62l6.56-26.47c1.99-8.5,3.46-16.36,3.63-26.02l0.01-0.33
				c0.05-2.84,2.39-5.11,5.23-5.06C1721.99,3130.91,1723.28,3131.52,1724.19,3132.48z" />
			</g>
			<g>
				<path class="st2" d="M2621.39,3291.76c0,145.8-43.91,223.08-136.75,201.11c-75.07-17.74-74.02-186.56-74.02-186.56
				c-1.05-0.65-2.1-1.34-3.15-2.03c-159.73-102.44-125.42-259.82-125.42-259.82l321.61-9.41c-15.78,44.77-4.96,100.63,5.39,156.88
				C2615.31,3225.85,2621.39,3259.87,2621.39,3291.76z" />
			</g>
			<g>
				<path class="st4" d="M2621.39,3291.76c0,145.8-43.91,223.08-136.75,201.11c-75.07-17.74-74.02-186.56-74.02-186.56
				c-1.05-0.65-2.1-1.34-3.15-2.03c16.76-12.92,48.1-31.49,93.89-35.91c66.82-6.41,97.19-35.22,107.68-76.45
				C2615.31,3225.85,2621.39,3259.87,2621.39,3291.76z" />
			</g>
			<g>
				<path class="st1" d="M2287.55,3045.49c2.15,12.71,3.7,25.24,5.3,37.42c1.57,12.21,3.02,24.29,5.32,36.22
				c4.6,23.76,10.62,47.45,21.44,69.29c5.33,10.92,11.61,21.39,18.76,31.24c3.4,5.05,7.36,9.71,11.11,14.52
				c4.05,4.57,7.91,9.31,12.26,13.63c16.99,17.62,36.39,33.05,57.37,46.24l6.69,4.2l0.1,8.16c0.38,30.1,3.49,61.46,10.13,90.84
				c3.45,14.67,7.73,29.12,13.83,42.14c2.98,6.55,6.44,12.73,10.42,18.17c3.94,5.47,8.32,10.38,13.26,13.91
				c4.95,3.63,10.05,6.02,15.94,7.47c7,1.56,14,2.64,20.9,3.02c13.76,0.59,27.02-1.65,38.3-7.91c5.67-3.06,10.92-6.96,15.67-11.62
				c4.7-4.73,8.91-10.15,12.69-16.01c7.48-11.84,13.05-25.46,17.22-39.71c8.44-28.57,11.67-59.38,12.97-90.16
				c0.28-7.72,0.43-15.45,0.45-23.21c0.01-3.85-0.2-7.53-0.28-11.3c-0.04-3.74-0.26-7.51-0.63-11.3
				c-0.99-15.11-3.35-30.42-5.79-45.78c-5.14-30.76-11.75-61.85-16.02-94.14c-2.04-16.15-5.15-32.54-3.54-49.58
				c1.37-16.76,5.96-34.51,18.48-47.79c2-2.12,5.33-2.22,7.45-0.22c0.91,0.85,1.45,1.96,1.61,3.1l0.05,0.33
				c2.35,16.76,2.59,30.64,2.87,45.46c0.14,3.7,0.27,7.38,0.2,11.07c0.25,3.74,0.29,7.49,0.36,11.24
				c0.14,7.52,0.61,15.15,1.41,22.78c3.73,30.52,10.46,61.36,15.7,93.03c2.52,15.88,5,31.89,6.1,48.37
				c0.39,4.08,0.63,8.21,0.69,12.38c0.1,4.14,0.31,8.36,0.3,12.42c-0.02,8.07-0.18,16.15-0.47,24.25
				c-1.39,32.34-4.66,65.02-14.13,97.26c-4.73,16.08-11.12,32.07-20.55,47.03c-4.78,7.43-10.3,14.58-16.77,21.07
				c-6.53,6.43-14.07,12.1-22.32,16.54c-8.25,4.42-17.19,7.69-26.27,9.44c-9.09,1.76-18.22,2.25-27.15,1.89
				c-8.91-0.48-17.58-1.84-26.02-3.73c-9.52-2.22-18.98-6.65-26.73-12.46c-7.91-5.77-14.16-12.88-19.45-20.2
				c-5.34-7.34-9.61-15.08-13.19-22.91c-7.31-15.67-12-31.77-15.79-47.86c-3.66-16.12-6.2-32.29-7.96-48.49
				c-1.71-16.3-2.8-32.19-2.9-49.01l6.79,12.36c-22.72-14.28-44.04-31.18-62.89-50.73c-4.8-4.79-9.13-10.06-13.62-15.16
				c-4.2-5.36-8.59-10.57-12.42-16.22c-8-11.04-15.01-22.81-21.23-34.96c-12.6-24.18-22.21-50.36-25.79-77.55
				c-3.48-27.01-2.94-55.18,10.34-80.53c1.28-2.44,4.29-3.38,6.73-2.1c1.43,0.75,2.34,2.09,2.6,3.56L2287.55,3045.49z" />
			</g>
			<g>
				<path class="st1" d="M1845.15,3418.35c5.77,10.71,12.17,20.45,19.22,29.11c3.53,4.34,7.25,8.38,10.91,12.35
				c3.52,4.13,7.4,7.79,10.72,12.26l0.49,0.65c3.32,4.47,2.39,10.78-2.07,14.1c-3.47,2.58-8.06,2.58-11.49,0.38
				c-5.57-3.6-10.38-8.28-14.38-13.53c-4.11-5.18-7.16-11.12-9.74-17.11c-2.6-5.99-4.43-12.27-5.62-18.59
				c-1.11-6.36-1.66-12.73-0.87-19.23c0.1-0.81,0.83-1.39,1.64-1.29c0.49,0.06,0.9,0.35,1.12,0.76L1845.15,3418.35z" />
			</g>
			<g>
				<path class="st1" d="M1771.37,3418.27c6.34,11.78,12.23,23.3,18.45,34.28c3.05,5.52,6.43,10.73,9.4,16.03
				c3.03,5.29,6.18,10.27,8.79,15.69l0.27,0.56c2.41,5.02,0.29,11.04-4.72,13.45c-4,1.92-8.64,0.95-11.58-2.05
				c-5.03-5.16-8.85-11.22-11.92-17.48c-3.04-6.27-5.22-12.87-6.97-19.49c-1.75-6.62-3.01-13.32-3.84-20.05
				c-0.75-6.76-1.17-13.51-0.69-20.39c0.06-0.82,0.76-1.43,1.58-1.37c0.52,0.04,0.96,0.34,1.2,0.77L1771.37,3418.27z" />
			</g>
			<g>
				<path class="st1" d="M2522.59,3420.71c4.99,11.78,10.83,22.6,17.73,31.98c3.37,4.75,7.16,8.99,10.88,13.12
				c3.6,4.28,7.69,7.89,11.3,12.32l0.66,0.82c3.5,4.3,2.85,10.63-1.45,14.13c-3.38,2.75-8.02,2.93-11.55,0.8
				c-6.08-3.69-11.5-8.58-15.72-14.29c-4.41-5.59-7.61-11.99-10.07-18.49c-2.49-6.5-4.17-13.21-5-19.95
				c-0.77-6.77-0.88-13.51,0.37-20.24c0.15-0.8,0.92-1.33,1.72-1.18c0.5,0.09,0.89,0.43,1.08,0.86L2522.59,3420.71z" />
			</g>
			<g>
				<path class="st1" d="M2464.92,3420.76c4.63,12.01,10.19,23.13,16.15,33.69l9.33,15.49c2.99,5.18,6.19,10.2,8.66,15.8l0.19,0.43
				c2.25,5.1-0.05,11.06-5.15,13.31c-4.05,1.79-8.65,0.69-11.5-2.39c-4.61-5-8.28-10.75-11.28-16.84
				c-3.13-6.02-5.15-12.6-6.98-19.11c-1.72-6.57-2.85-13.29-3.36-20.03c-0.42-6.77-0.38-13.51,1.09-20.27
				c0.17-0.79,0.96-1.3,1.75-1.12c0.5,0.11,0.88,0.46,1.06,0.9L2464.92,3420.76z" />
			</g>
			<g class="st5">
				<path class="st1" d="M2621.39,3291.76c0,145.8-43.91,223.08-136.75,201.11c-18.24-4.31-32-17.56-42.35-35.11
				c92.59,21.68,158.58-40.87,142.23-191.95c-3.43-31.7-11.92-75.15-18.18-109.06c-5.49-29.85-4.06-57.92,0.79-84.41
				c3.41-18.65,18.01-33.25,36.53-37.28l0,0c-15.78,44.77-4.96,100.63,5.39,156.88C2615.31,3225.85,2621.39,3259.87,2621.39,3291.76
				z" />
			</g>
			<g>
				<path class="st1" d="M2198.47,3150.93c-2.14,0-4.3-0.55-6.28-1.7c-5.96-3.47-7.98-11.12-4.51-17.08
				c0.51-0.89,41.64-73.02,59.2-196.21c16.22-113.8,15.07-295.78-82.53-516.48c-2.79-6.31,0.06-13.7,6.38-16.49
				c6.31-2.79,13.69,0.06,16.49,6.38c100.28,226.76,101.14,414.19,84.21,531.5c-18.44,127.73-60.37,200.83-62.14,203.88
				C2206.96,3148.71,2202.77,3150.93,2198.47,3150.93z" />
			</g>
			<g>
				<path class="st1" d="M2167.92,3149.63c-1.18,0-2.38-0.17-3.56-0.52c-6.62-1.97-10.39-8.92-8.43-15.54
				c1.1-3.7,108.35-374.1-14.42-714.44c-2.34-6.49,1.02-13.66,7.52-16c6.49-2.34,13.66,1.02,16,7.52
				c125.62,348.23,16,726.25,14.87,730.03C2178.28,3146.11,2173.31,3149.63,2167.92,3149.63z" />
			</g>
			<g>
				<path class="st1" d="M2144.49,3149.75c-0.49,0-0.98-0.03-1.48-0.09c-6.86-0.81-11.76-7.02-10.95-13.88
				c0.49-4.13,47.85-416.46-19.42-715.77c-1.51-6.74,2.72-13.42,9.45-14.94c6.74-1.51,13.42,2.72,14.94,9.45
				c68.22,303.53,20.35,720.01,19.86,724.18C2156.15,3145.07,2150.74,3149.75,2144.49,3149.75z" />
			</g>
		</g>
	</g>
</svg>