<svg xmlns="http://www.w3.org/2000/svg" viewBox="0 0 2372.48 2000">
    <defs>
        <style>
            .cls-1 {
                isolation: isolate;
            }

            .cls-2,
            .cls-4 {
                fill: #fff;
            }

            .cls-3 {
                fill: #bde6f6;
            }

            .cls-4 {
                opacity: 0.25;
                mix-blend-mode: screen;
            }

            .cls-5 {
                fill: #86b1f2;
            }

            .cls-6 {
                fill: #9bc1f9;
            }

            .cls-7 {
                fill: #466eb6;
            }

            .cls-8 {
                fill: #35548f;
            }

            .cls-9 {
                fill: #0e2e35;
            }

            .cls-10 {
                fill: #e25a44;
            }

            .cls-11 {
                fill: #f47458;
            }

            .cls-12 {
                fill: #f48c7f;
            }

            .cls-13 {
                fill: #13375b;
            }

            .cls-14 {
                fill: #e5b05c;
            }

            .cls-15 {
                fill: #f7cc7f;
            }

            .cls-16 {
                fill: #f7a491;
            }

            .cls-17 {
                fill: #355389;
            }

            .cls-18 {
                fill: #b75742;
            }

            .cls-19 {
                fill: #184655;
            }
        </style>
    </defs>
    <g class="cls-1">
        <g id="Layer_1" data-name="Layer 1">
            <path class="cls-3"
                d="M2067.48,1827.59c98.23-166.5,154.95-362.9,154.95-573.24,0-601.47-463.77-1089.06-1035.85-1089.06S150.73,652.88,150.73,1254.35c0,210.34,56.73,406.74,155,573.24Z"
                transform="translate(0)" />
            <path class="cls-4"
                d="M2049.8,517.22c-52.58-6.06-106-1-158.86-4.78A464.25,464.25,0,0,1,1738.49,475c-13.19-5.78-26.21-12.23-40.49-15.25-19.19-4.05-39.21-1.63-58.91-.91a336.3,336.3,0,0,1-113.27-15.28c-12.23-3.87-25.88-10.27-27.9-21.76-2.57-14.67,15.25-25.16,30.83-30.19s34.29-11.24,37.65-25.78c1.52-6.53-.52-13.91,3.43-19.57,2.69-3.87,7.58-6,12.25-7.77,51.73-20,108-27.79,163.93-29.89,12.26-.46,24.91-.06,37.67.44a1280.17,1280.17,0,0,0-212.24-86q-53.25,2.55-106.75,1.13c-74.61-2-154.82-8.56-218.53,26.32-8.27,4.53-16.61,10.31-19.33,18.65-6.72,20.59,22.6,34.64,45.8,39.9,3.66,14.26-17.36,22.37-33.44,24.92a1012.9,1012.9,0,0,0-152.42,36.43c-35.12,11.35-74.11,29.47-81,62.36-4.86,23.13,9,47.06,29.45,61.82s46.49,21.77,72.27,26.25c87.75,15.25,178.48,4.79,267.46,12.4,11.87,1,24.27,2.54,33.93,8.81,15.28,9.9,19.38,28.48,30.07,42.41,21.22,27.66,63.75,32.71,101.13,34.54q124.88,6.11,250,1.83c21-.72,42.38-1.63,62.65,3.31,21.31,5.19,40,16.49,59.76,25.36,47,21.09,99.87,28.41,151.79,35.53,53.26,7.29,107,14.64,160.75,13.47A1109.81,1109.81,0,0,0,2078.86,521.6C2069.22,519.87,2059.55,518.35,2049.8,517.22Z"
                transform="translate(0)" />
            <path class="cls-4"
                d="M1746.63,874.14c-7-10.07-17.62-16.51-28.17-22.15-155-83-339.9-54.18-513.33-68.69-44.4-3.71-89.44-10.67-129.44-31.28C1029,728,988.27,685.23,936.35,681.84c-36.48-2.39-84.82,9.72-100.5-25-3.86-8.55-3.65-18.35-4.82-27.73-15.91-127.66-246.13-90.55-268.58-89.44l-165,8.09a1096.7,1096.7,0,0,0-139,220.83c51.71-.51,103.43-.86,155.14-1.38,25.51-.26,51.5-.44,75.89,7.4,33.26,10.69,61.09,35.52,94.25,46.53,25.48,8.46,52.71,8.32,79.42,8.1l289.94-2.4c18.25-.15,37-.21,54,6.78,16.69,6.86,30.26,19.93,45.33,30.11,49.76,33.61,112.48,34.16,170.56,45.9,18.43,3.72,38.73,10.3,47.55,27.72,14.71,29-13.12,62.21-41.19,76.69-112.66,58.12-251.38,1.74-371.27,40.72-32.06,10.42-61.8,27.42-93,40.29-102.48,42.21-216.51,38.51-326,26.4-92.64-10.25-185.67-26.07-278.45-23.46a1153.55,1153.55,0,0,0-10.57,156.1q0,24.93,1.09,49.58l155.28,3.67c97.77,2.31,195.74,4.62,293.21-3.69,54.6-4.66,109.65-12.85,160.3-34.81,30.54-13.25,59.16-31.38,90.57-42.15,55.23-18.94,114.86-13.89,172.88-17,89.6-4.72,177.07-29.16,263.76-53.46,133.55-37.44,462.62-93.5,471.06-235.4C1759.17,904.58,1755.76,887.34,1746.63,874.14Z"
                transform="translate(0)" />
            <path class="cls-2"
                d="M2042.6,791.35s-3,30.86-26.15,33c23.17,2.14,26.15,33,26.15,33s3-30.86,26.14-33C2045.57,822.21,2042.6,791.35,2042.6,791.35Z"
                transform="translate(0)" />
            <path class="cls-2"
                d="M899.06,347.84s-2,20.92-17.72,22.37c15.7,1.44,17.72,22.37,17.72,22.37s2-20.93,17.72-22.37C901.08,368.76,899.06,347.84,899.06,347.84Z"
                transform="translate(0)" />
            <path class="cls-2"
                d="M2077.47,1283.5s-2.08,21.63-18.32,23.13c16.24,1.5,18.32,23.13,18.32,23.13s2.09-21.63,18.33-23.13C2079.56,1305.13,2077.47,1283.5,2077.47,1283.5Z"
                transform="translate(0)" />
            <path class="cls-2" d="M1867.4,1085.11c12.36,0,12.38-20.19,0-20.19s-12.38,20.19,0,20.19Z"
                transform="translate(0)" />
            <path class="cls-2" d="M1639.05,1205.72c6.17,0,6.19-10.1,0-10.1s-6.19,10.1,0,10.1Z"
                transform="translate(0)" />
            <path class="cls-2" d="M1991.18,990.31c6.18,0,6.19-10.09,0-10.09s-6.19,10.09,0,10.09Z"
                transform="translate(0)" />
            <path class="cls-2" d="M1803.38,765.93c6.18,0,6.19-10.1,0-10.1s-6.19,10.1,0,10.1Z"
                transform="translate(0)" />
            <path class="cls-2" d="M796.05,496.68c6.18,0,6.19-10.1,0-10.1s-6.19,10.1,0,10.1Z"
                transform="translate(0)" />
            <path class="cls-2" d="M977.45,625.13c12.36,0,12.38-20.19,0-20.19s-12.38,20.19,0,20.19Z"
                transform="translate(0)" />
            <path class="cls-2" d="M986,469.75c6.18,0,6.19-10.1,0-10.1s-6.19,10.1,0,10.1Z" transform="translate(0)" />
            <path class="cls-2" d="M802.45,368.78c6.18,0,6.19-10.1,0-10.1s-6.19,10.1,0,10.1Z"
                transform="translate(0)" />
            <path class="cls-2" d="M732,366.25c3.09,0,3.09-5,0-5s-3.1,5,0,5Z" transform="translate(0)" />
            <path class="cls-2" d="M435.38,797.06c3.09,0,3.09-5,0-5s-3.1,5,0,5Z" transform="translate(0)" />
            <path class="cls-2" d="M610.38,779.68c9.27,0,9.28-15.15,0-15.15s-9.29,15.15,0,15.15Z"
                transform="translate(0)" />
            <path class="cls-2" d="M262.51,1053.14c6.18,0,6.19-10.1,0-10.1s-6.19,10.1,0,10.1Z"
                transform="translate(0)" />
            <path class="cls-2" d="M1769.23,482.79c13.9,0,13.93-22.72,0-22.72s-13.93,22.72,0,22.72Z"
                transform="translate(0)" />
            <path class="cls-2" d="M1528.07,317.45c9.27,0,9.28-15.14,0-15.14s-9.29,15.14,0,15.14Z"
                transform="translate(0)" />
            <path class="cls-2" d="M1312.52,375.51c6.18,0,6.19-10.1,0-10.1s-6.19,10.1,0,10.1Z"
                transform="translate(0)" />
            <path class="cls-2" d="M1686,412.39c4.63,0,4.64-7.57,0-7.57s-4.64,7.57,0,7.57Z" transform="translate(0)" />
            <path class="cls-2" d="M1873.8,531.31c4.64,0,4.65-7.57,0-7.57s-4.64,7.57,0,7.57Z"
                transform="translate(0)" />
            <path class="cls-2" d="M1694.53,757.94c4.64,0,4.65-7.57,0-7.57s-4.64,7.57,0,7.57Z"
                transform="translate(0)" />
            <path class="cls-2" d="M932.64,771.4c4.63,0,4.64-7.57,0-7.57s-4.65,7.57,0,7.57Z" transform="translate(0)" />
            <path class="cls-5"
                d="M1352.24,1823S1180.05,1633.7,1079,1604.35s-5.81,87.24-5.81,87.24-179.32-175.91-245.12-160c-60.32,14.53,0,123.57,0,123.57s-67.94-60.38-150.32-60.38,63.68,226.09,63.68,226.09Z"
                transform="translate(0)" />
            <path class="cls-6"
                d="M828,1820.82s-149.13-304-285.11-273.59c-110.19,24.69-9.78,182.38-16.49,176.35s-48.56-80.51-144.19-80.51,29.35,121.42,29.35,121.42-203.74-57.08-219.69,2.86c-13.25,49.75,60.8,53.47,60.8,53.47Z"
                transform="translate(0)" />
            <path class="cls-6"
                d="M1020.18,1822.82s156.41-186.48,257.49-215.84,5.82,87.25,5.82,87.25,179.31-175.91,245.12-160c60.31,14.53-33.68,225.22-33.68,225.22s69.84-166.68,152.22-166.68-31.9,230.74-31.9,230.74Z"
                transform="translate(0)" />
            <path class="cls-5"
                d="M1528.61,1823.46s109.8-263.43,245.77-233c110.2,24.69,31.85,157.24,38.57,151.22s65.82-96,161.45-96S1945,1767.13,1945,1767.13s203.75-57.08,219.7,2.86c13.24,49.75-60.81,53.47-60.81,53.47Z"
                transform="translate(0)" />
            <path class="cls-7"
                d="M199.45,1731.17c48.75,13.37,90.94,41,131.5,67.81,27.36,18.09,25.06,21.53,30.78,24.5.93.48,2.12-.31,1.82-1.25-1.47-4.6-7.05-8.49-10.84-11.63a169,169,0,0,0-13.95-10.25c-10.31-6.88-21-13.32-31.65-19.81-21.61-13.19-43.73-25.91-67.38-36a278.77,278.77,0,0,0-40.17-13.73.19.19,0,1,0-.11.36Z"
                transform="translate(0)" />
            <path class="cls-7"
                d="M247.25,1725c-.71,1.78-4,6.74-3.77,12.22-.32,5.31,2.82,11.15,2.9,10.9.37,0-6.22-2.81-9.78-8.94-4-5.75-4.95-14.78-3-18.28,2.83-7.59,10.84-10.15,13.34-7.36S248.56,1721,247.25,1725Z"
                transform="translate(0)" />
            <path class="cls-7"
                d="M288.12,1746.52c-.71,1.78-4,6.74-3.76,12.21-.32,5.32,2.81,11.16,2.9,10.91.36,0-6.22-2.81-9.78-8.94-4-5.75-5-14.78-3.06-18.28,2.83-7.59,10.85-10.15,13.35-7.37S289.44,1742.55,288.12,1746.52Z"
                transform="translate(0)" />
            <path class="cls-7"
                d="M328.91,1771.93c-.71,1.78-4,6.74-3.76,12.22-.32,5.31,2.81,11.15,2.9,10.9.36,0-6.22-2.81-9.78-8.94-4-5.75-4.95-14.78-3.06-18.28,2.83-7.59,10.85-10.15,13.35-7.36S330.23,1768,328.91,1771.93Z"
                transform="translate(0)" />
            <path class="cls-7"
                d="M226.38,1759.49c1.22-1.35,4-6,8.93-8.54a25.36,25.36,0,0,1,11-3.19,27.57,27.57,0,0,0-12.57-2.63c-7-.05-15.39,3.61-17.56,6.64-5.31,5.65-3.71,12.56,0,13S223.51,1762.34,226.38,1759.49Z"
                transform="translate(0)" />
            <path class="cls-7"
                d="M268.93,1781.75c1.22-1.36,4-6,8.93-8.54a25.36,25.36,0,0,1,11-3.19,27.37,27.37,0,0,0-12.57-2.63c-7-.06-15.39,3.61-17.56,6.64-5.31,5.65-3.7,12.56-.05,13S266.07,1784.59,268.93,1781.75Z"
                transform="translate(0)" />
            <path class="cls-7"
                d="M1778.75,1597.13a601.74,601.74,0,0,0-34.15,227.68h-3.26a605.47,605.47,0,0,1,34.3-225.86c6-16.93,12-36.74,29.59-47a.29.29,0,1,1,.32.48C1789.71,1562.61,1784.36,1581.3,1778.75,1597.13Z"
                transform="translate(0)" />
            <path class="cls-7"
                d="M1756.08,1824.81c31.52-72.47,75.13-142.93,132.31-208.83.57-.66,1.88.23,1.3.9-54,63.27-97.63,133.15-129.57,207.93Z"
                transform="translate(0)" />
            <path class="cls-7"
                d="M1771.28,1557.57c1.6,1.23,7.15,4.11,10,9,3.2,4.49,3.67,11,3.46,10.77-.3.2,3.87-5.18,3.61-12.09.32-6.77-3.79-15.06-7.36-17.27-6.63-5.36-15-4-15.66-.52S1768,1554.69,1771.28,1557.57Z"
                transform="translate(0)" />
            <path class="cls-7"
                d="M1798.5,1610.55c-2-.66-7.47-3.63-13.58-3.5-5.92-.34-12.45,2.41-12.18,2.49a25.92,25.92,0,0,1,10.06-8.68c6.45-3.52,16.53-4.29,20.41-2.56,8.43,2.61,11.2,9.83,8.07,12S1802.91,1611.77,1798.5,1610.55Z"
                transform="translate(0)" />
            <path class="cls-7"
                d="M1789.74,1638.74c-2-.65-7.46-3.62-13.57-3.5-5.92-.34-12.46,2.42-12.18,2.5a25.8,25.8,0,0,1,10.06-8.69c6.45-3.51,16.52-4.29,20.41-2.55,8.42,2.61,11.19,9.83,8.07,12S1794.16,1640,1789.74,1638.74Z"
                transform="translate(0)" />
            <path class="cls-7"
                d="M1863.79,1681.45c-2-.66-7.46-3.63-13.57-3.5-5.92-.34-12.46,2.41-12.18,2.49a25.81,25.81,0,0,1,10-8.69c6.46-3.51,16.53-4.29,20.42-2.55,8.42,2.61,11.19,9.83,8.07,12S1868.21,1682.67,1863.79,1681.45Z"
                transform="translate(0)" />
            <path class="cls-7"
                d="M1886.11,1651.33c-2-.66-7.47-3.62-13.58-3.5-5.92-.34-12.46,2.41-12.18,2.49a25.82,25.82,0,0,1,10.06-8.68c6.45-3.52,16.52-4.29,20.41-2.56,8.43,2.62,11.2,9.83,8.07,12.05S1890.52,1652.55,1886.11,1651.33Z"
                transform="translate(0)" />
            <path class="cls-7"
                d="M1757.08,1590.51c1.79,1,7.78,3,11.43,7.45,3.94,4,5.54,10.29,5.3,10.14-.25.24,2.92-5.66,1.44-12.45-.87-6.73-6.39-14.33-10.3-16-7.49-4.36-15.53-1.87-15.56,1.7S1753.29,1588.13,1757.08,1590.51Z"
                transform="translate(0)" />
            <path class="cls-7"
                d="M1741.76,1623.78c2.26.47,9.7.51,14.58,4.32,5.18,3.2,7.8,10.16,7.5,10.08-.28.39,2.9-8,.38-15.6-1.79-7.75-9.26-14.67-14.17-15.1-9.49-2.2-18.92,4.06-18.55,8.38S1736.93,1622.46,1741.76,1623.78Z"
                transform="translate(0)" />
            <path class="cls-7"
                d="M1729.44,1671.55c2.32.12,9.67-1,15.19,2.07,5.71,2.36,9.59,8.83,9.28,8.8-.21.43,1.35-8.35-2.55-15.44-3.21-7.37-11.88-13.06-16.8-12.75-9.76-.73-17.89,6.87-16.72,11.07S1724.44,1671,1729.44,1671.55Z"
                transform="translate(0)" />
            <path class="cls-7"
                d="M1811.56,1683c1.81.49,7.86.91,11.59,4.26,4,2.86,5.7,8.66,5.45,8.58-.25.3,2.87-6.38,1.31-12.67-1-6.4-6.61-12.4-10.57-13-7.58-2.27-15.65,2.34-15.63,5.87S1807.72,1681.7,1811.56,1683Z"
                transform="translate(0)" />
            <path class="cls-7"
                d="M1815,1557.54c-1.13-.47-4.24-2.44-7.86-2.6a16.53,16.53,0,0,0-7.33,1,15.75,15.75,0,0,1,6.38-4.74c4-1.83,10-1.89,12.2-.71,4.85,1.87,6.14,6.26,4.18,7.44S1817.58,1558.43,1815,1557.54Z"
                transform="translate(0)" />
            <path class="cls-7"
                d="M1800.82,1541.91c.36,1.07,2.13,4.1,1.84,7.34a12.56,12.56,0,0,1-2.07,6.38,15.79,15.79,0,0,0,6.08-5c2.54-3.3,3.41-8.63,2.4-10.75-1.43-4.57-6.1-6.3-7.67-4.71S1800.17,1539.53,1800.82,1541.91Z"
                transform="translate(0)" />
            <path class="cls-7"
                d="M1900.12,1622.75c-1.14-.47-4.24-2.44-7.87-2.6a16.34,16.34,0,0,0-7.32,1,15.58,15.58,0,0,1,6.37-4.74c4-1.83,10-1.89,12.2-.71,4.86,1.88,6.14,6.26,4.19,7.44S1902.67,1623.65,1900.12,1622.75Z"
                transform="translate(0)" />
            <path class="cls-7"
                d="M1884,1607.41c.46,1,2.5,3.93,2.5,7.18a12.31,12.31,0,0,1-1.48,6.51,15.35,15.35,0,0,0,5.6-5.47c2.24-3.47,2.61-8.85,1.41-10.89-1.84-4.45-6.65-5.82-8.07-4.13S1883.15,1605.08,1884,1607.41Z"
                transform="translate(0)" />
            <path class="cls-7"
                d="M194.79,1738.66c1-.7,3.41-3.32,6.87-4.3a16.64,16.64,0,0,1,7.37-.7,16.78,16.78,0,0,0-7.51-3.14c-4.37-.86-10.19.44-12,2.08-4.17,2.93-4.18,7.45-2,8.16S192.57,1740.11,194.79,1738.66Z"
                transform="translate(0)" />
            <path class="cls-7"
                d="M204.13,1720.32c0,1.12-.91,4.44.29,7.51a13.43,13.43,0,0,0,3.81,5.71,16.93,16.93,0,0,1-7.31-3.5c-3.4-2.61-5.74-7.57-5.36-9.85.09-4.75,4.12-7.48,6.09-6.3S204.08,1717.86,204.13,1720.32Z"
                transform="translate(0)" />
            <path class="cls-8"
                d="M2195.26,1816.47H177.9c-4.41,0-8,4.09-8,9.12s3.57,9.12,8,9.12H2195.26c4.41,0,8-4.08,8-9.12S2199.67,1816.47,2195.26,1816.47Z"
                transform="translate(0)" />
            <polygon class="cls-9" points="2047.58 1820.8 2070.97 1820.8 2021.1 1387.4 1997.71 1387.4 2047.58 1820.8" />
            <polygon class="cls-9"
                points="1783.47 1820.8 1760.08 1820.8 1809.94 1387.4 1833.34 1387.4 1783.47 1820.8" />
            <polygon class="cls-9"
                points="1638.14 1820.8 1661.53 1820.8 1611.67 1387.4 1588.27 1387.4 1638.14 1820.8" />
            <polygon class="cls-9" points="1374.04 1820.8 1350.64 1820.8 1400.51 1387.4 1423.9 1387.4 1374.04 1820.8" />
            <path class="cls-10"
                d="M1655.84,1434.5h319.1c37.4,0,70.82-30.32,74.65-67.72l52.73-515.07c3.83-37.4-23.39-67.72-60.78-67.72h-319.1c-37.4,0-70.82,30.32-74.65,67.72l-52.73,515.07C1591.23,1404.18,1618.44,1434.5,1655.84,1434.5Z"
                transform="translate(0)" />
            <path class="cls-11"
                d="M1567.23,1434.5h319.1c37.4,0,70.82-30.32,74.65-67.72l52.73-515.07c3.83-37.4-23.38-67.72-60.78-67.72h-319.1c-37.4,0-70.82,30.32-74.65,67.72l-52.73,515.07C1502.62,1404.18,1529.83,1434.5,1567.23,1434.5Z"
                transform="translate(0)" />
            <path class="cls-10"
                d="M1524.47,1458.25h452.29c35,0,66.37-28.41,70-63.46h0c3.59-35-21.91-63.46-57-63.46H1537.47c-35,0-66.37,28.41-70,63.46h0C1463.92,1429.84,1489.43,1458.25,1524.47,1458.25Z"
                transform="translate(0)" />
            <path class="cls-11"
                d="M1411.56,1458.25h452.29c35.05,0,66.37-28.41,70-63.46h0c3.59-35-21.92-63.46-57-63.46H1424.56c-35,0-66.37,28.41-70,63.46h0C1351,1429.84,1376.51,1458.25,1411.56,1458.25Z"
                transform="translate(0)" />
            <path class="cls-12"
                d="M1325.07,937.38c-2.1-6.09,27.49-10.9,29.09-17s-37.32-6.76-38.7-12.17c-2.53-10,42.66-1.95,41.79-6.61s-47.07-15.22-42-23.19,46.75,16,48,10.54-40.81-18.76-40-30.64c.43-6.35,69.06,31.92,77,28.49s-8.46-33.33-2.09-37.74,24.36,60.76,28.73,63S1524,967.5,1557,976c4-11.06,33.1-69.65,36.67-80.11,18.5,13.26,40,16.22,59.1,28.32-14,34.7-61.93,120.1-71.6,124.43-29.47,13.19-142.91-81.57-165.56-97.8s-35.7-11-51.05-16.2S1327.17,943.47,1325.07,937.38Z"
                transform="translate(0)" />
            <path class="cls-13"
                d="M1613,661c-1.38-33.09,3.5-65.76,18.3-96.57,12.74-26.51,44.26-41.55,73-41.58,91.26-.12,102.87,120.46,161,167,17.75,14.22,37.6,25.79,54.39,41.12,62,56.59,34.09,161.36-22.86,211-39.53,34.43-101.64,54-150.35,27.08-25.43-14-44.73-37.4-58.48-63-19.52-36.32-32.1-78.22-46-116.93C1627.2,747.88,1614.82,705,1613,661Z"
                transform="translate(0)" />
            <path class="cls-14"
                d="M1647.13,965.57s68.16-69.89,85.7-100.25-11.95-10.6-42.06-18.59c-11.41-3-8.52-69.85-30.08-48.13-35.37,35.64-79.84,98-79.84,98Z"
                transform="translate(0)" />
            <path class="cls-15"
                d="M1744,767.94s61.17-12.07,89.08,11.25-6,230.66-5.95,265,19.16,131.49,19.16,131.49-185.39,32.45-214.84-19.15c0,0-8.38-196.59-7.13-221.31s28.73-125.82,36.33-136.65S1744,767.94,1744,767.94Z"
                transform="translate(0)" />
            <path class="cls-16"
                d="M1744.42,673.32s.32,1.83.9,4.94c2.77,14.93,13.46,64.46,20.68,78.08,8.72,16.45-29.86,68.93-67,62.53-11-1.91,9.34-48.22,8.36-53.13-1.87-9.39-4.42-22.2-7-35.34-1.47-7.41-3-14.92-4.35-22-4-20.07-7.22-36.48-7.22-36.48Z"
                transform="translate(0)" />
            <path class="cls-11"
                d="M1745.32,678.26c-.58-3.11-.9-4.94-.9-4.94l-55.65-1.38s3.24,16.41,7.22,36.48c1.39,7,2.86,14.49,4.33,21.86,8.59-1.26,17.56-5.43,26.56-13.29A70.07,70.07,0,0,0,1747,687.12C1746.32,683.61,1745.75,680.58,1745.32,678.26Z"
                transform="translate(0)" />
            <path class="cls-16"
                d="M1707,547.09s26.23-3,42.67,18.2,34.16,86.85-6.68,122.52-81.2-4.7-87.18-47.52S1647.47,545.55,1707,547.09Z"
                transform="translate(0)" />
            <path class="cls-16"
                d="M1643.7,639.65c4.87,9.46,13,14.7,18.27,11.7s5.5-13.09.63-22.55-13.06-14.7-18.28-11.7S1638.82,630.2,1643.7,639.65Z"
                transform="translate(0)" />
            <path class="cls-13"
                d="M1704,540.08s35,62.4,60.11,65.29,28.36,36,28.36,36-9-76.41-33.78-91.14S1704,540.08,1704,540.08Z"
                transform="translate(0)" />
            <path class="cls-16"
                d="M1757.57,621.05c-2,11.08,2.06,21.24,9.16,22.7s14.5-6.35,16.54-17.43-2.07-21.25-9.16-22.7S1759.61,610,1757.57,621.05Z"
                transform="translate(0)" />
            <path class="cls-12"
                d="M1521.74,1648.86s56.28,67.48,56.65,73.35-2.24,70-8.93,75.82-26.35,10-20,16.64c4.77,5,41.53,3.92,65.88,2.58,7.11-.39,16-57.12,18.85-65.46,4.09-12.1,14-39.38,10.31-47.82-1.81-4.11-10.48-12.57-22.69-20.46-12.85-8.29-62-76.67-62-76.67Z"
                transform="translate(0)" />
            <path class="cls-15"
                d="M1621,1683.12s-37.79,106.39-52.58,111.53c-3.93,1.36-22.78,4.82-26.33,13.15-1.07,2.52,0,10.9,0,10.9h78.76s10-46.88,13.9-67.47c0,0,20.85-50.33,18.53-54.9S1621,1683.12,1621,1683.12Z"
                transform="translate(0)" />
            <path class="cls-16"
                d="M1184.66,1681.27s-46,64.7-41.91,85.16c2.17,11,11.81,25.31,6.28,35.62s-11.86,12.9-11.86,12.9l-143.35,2.3c-7.81.13-2.65-4.89,3.65-9.51,10.3-7.56,18.62-12.56,51.54-28.45,2.15-1,10-6,12.78-7.72,7.15-4.35,14.33-11.21,20.51-18.08,10.29-11.43,55.55-104.63,55.55-104.63Z"
                transform="translate(0)" />
            <path class="cls-15"
                d="M1061.81,1771.56c37.91,9.71,65.94,3.11,81.61-3.2,4,11.43,9.41,25.78,6.56,34.05-3.48,10.13-8.43,12.42-12.81,12.54-34.63.9-126.85,2.14-153.25,2.48a4.3,4.3,0,0,1-3.35-7.07C987.12,1802.55,1059,1773.28,1061.81,1771.56Z"
                transform="translate(0)" />
            <path class="cls-13"
                d="M1350.89,1282.13s56.9,64.95,71.42,75.24,153.79,266.77,153.79,266.77l-49.62,36.23S1402,1505.15,1343.54,1422.13c-49.43-70.2-31.22-65.75-60.29-108.48a57.08,57.08,0,0,1,8.73-74.42q3.93-3.56,8.57-7.43c43-35.86,338-76.22,338-76.22l188.65,18.47S1673,1282.13,1667.28,1285s-212.84,33.08-217.16,33.08S1350.89,1282.13,1350.89,1282.13Z"
                transform="translate(0)" />
            <path class="cls-17"
                d="M1846.33,1175.71s32.36,97.08-16.18,142.38-336.88,40.27-431.8,40.27c0,0-38.83,106.42-43.15,123.68s-192.71,240.17-192.71,240.17l-51.77-33.08s202.78-394.05,218.6-411.31,241.61-86.29,297.69-102.11S1846.33,1175.71,1846.33,1175.71Z"
                transform="translate(0)" />
            <path class="cls-2" d="M1691.18,664.23l38.48-2s-.13,14.66-17,16C1692,679.93,1691.18,664.23,1691.18,664.23Z"
                transform="translate(0)" />
            <path class="cls-2" d="M1691.18,664.23l38.48-2s-.13,14.66-17,16C1692,679.93,1691.18,664.23,1691.18,664.23Z"
                transform="translate(0)" />
            <path class="cls-16"
                d="M1473.47,966.93c-2.1-6.09,27.49-10.9,29.09-17s-37.32-6.76-38.69-12.17c-2.53-10,42.66-2,41.78-6.61s-47.06-15.22-42-23.19,46.76,16,48,10.54-40.81-18.76-40-30.64c.42-6.35,69,31.92,77,28.49s-8.46-33.33-2.1-37.74,24.36,60.76,28.74,62.95,97.08,55.52,130.1,64.07c4-11.06,33.1-69.65,36.68-80.11,18.5,13.26,40,16.22,59.1,28.32-14,34.7-61.93,120.1-71.61,124.43-29.46,13.18-142.9-81.57-165.55-97.8s-35.7-11-51-16.2S1475.58,973,1473.47,966.93Z"
                transform="translate(0)" />
            <path class="cls-14"
                d="M1810.06,963.12s40.15-89,46.24-123.51-23.53-77.89-54.56-75.09S1724.18,921,1724.18,921Z"
                transform="translate(0)" />
            <path class="cls-11" d="M889.3,991.85l-30.72-51.2-58.37,70.25,53.44,19.88S855.4,991.86,889.3,991.85Z"
                transform="translate(0)" />
            <path class="cls-18"
                d="M472.28,1365.59S400,1431.93,321.6,1510.33s-102.47,81.42-120.55,72.38-29.11-39-29.11-39-11.44,39.49,13.59,76.86,57.74,27,57.74,27l18.83-21.87-6.17,32.71s39,6.32,59.68-35,20.63-63.16,20.63-63.16,3.78,52-4.35,68.28c0,0,39.49,3.9,50.63-30.46s8.42-72.65,8.42-72.65l13.89,67.21s27.57-22.76,28-78.68l6.79,50.49s21.29-52.6,17.82-106.24,17.7-70.42,17.7-70.42Z"
                transform="translate(0)" />
            <path class="cls-18"
                d="M710.85,1490.92s3.6,123.7-68.79,166.26c-17.59,10.34-45.31,46.84-39,66.24,6,18.42,44.57,56.65,44.57,56.65s40.51,2.58,51.66,35.19c1.91,5.58-11.15,5.2-11.15,5.2H613.83l-70.47-111.34,2.21-71.54L585.71,1525l18-66.81Z"
                transform="translate(0)" />
            <path class="cls-18"
                d="M965.36,1334.16l60.8-29.17s148.24-87.53,162.71-95.44c26.9-14.72,50-21.91,66.53-21.44s73.38,26.77,73.37,34.46c0,6.42-37.14,39.17-78.57,19.92-13.3-6.18-19,3.52-19,3.52s-117.78,134.46-149.42,164.55-170.06,80.21-170.06,80.21Z"
                transform="translate(0)" />
            <path class="cls-11"
                d="M1016.56,1394.76,944.28,1605.6l-12.75,166.56s30.77,13.09,38.07,33.13A80.42,80.42,0,0,1,973,1817l-74.5.23c-18.55.06-29.82-196.36-27.45-214.77s-9.23-141.82-7.49-155.38,29.74-59.92,70.07-59.66S1016.56,1394.76,1016.56,1394.76Z"
                transform="translate(0)" />
            <path class="cls-11"
                d="M955.92,945.47l-29.75-20.89s-74,3.23-93.24,41.82c-6.16,12.33-12.06,29.22-10.26,48.29.93,10,6.82,28.85,12.56,45.53,6.45,18.69,6.78,32.36,4.95,51.76-6.55,24.75-47.39,85.69-67.55,98.35l14.77-7.16s-24.41,25.6-47.46,37.94c-90.09,46.66-232.5,97.21-261.36,117-34.36,23.52-20,143.34,9.25,196.39s-55.64,56.2-62.12,98.94c-6.11,40.36,106.76,167.39,106.76,167.39l100.14.7a.68.68,0,0,0,.64-1c-2.87-6.79-21.71-47.5-60.67-47.21C538.94,1773.59,520,1690,520,1690s114.45-21.44,145-110.67c23.5-68.72,14.6-82.13,9.27-84.67C698,1499.06,863,1528.09,929,1491.19c71.13-39.81,79.95-93.68,79.95-93.68l5.94,34.87s44.91-35.59,26.06-75.52c0,0,9.49,2.86,13.41,14.62,0,0,12.65-35.88-17.52-126.3-16.83-50.45-61.28-177.66-61.28-177.66s85.26-46.95,93.13-62.7c5.34-10.69-3.7-72.73-3.7-72.73Z"
                transform="translate(0)" />
            <path class="cls-18"
                d="M800.21,1010.9s31.6,33.62,52.6,33.31,5.77-103.56,5.77-103.56-30.05-1.35-45.22,29C807.36,981.66,800.21,1010.9,800.21,1010.9Z"
                transform="translate(0)" />
            <path class="cls-18"
                d="M982.17,1362.3c-13.9,33.86-1.15,2.8-10.66,26.07-13.86-30.83-17.08-74-19.31-108.31-9.07,19.87-17.83,56.34-22.43,72.16,6.8-33-15-85-28.66-115.27-.06.14-11.2,28-15.73,39.57-6.23-13.72-19.15-44.34-18.9-59.72.26-15.78,9.18-37.17,16.51-51.08-8.73,14.06-18.53,34.57-19.56,51-1.42,22.54,20.83,69.93,22.18,73.41,16.73-39.45,5.3-12.57,15.74-37.4,10.59,25.85,31.52,79.91,26.55,105.9,11.41-14,18.48-38.33,21.75-56.22-3,63.33,22,91.5,22.36,92.37-.06.17.67-1.91,10.41-29.93,2.09,3.13,6.5,9.82,7.89,13.33C989.89,1376.82,984.38,1366.12,982.17,1362.3Z"
                transform="translate(0)" />
            <path class="cls-19"
                d="M839.26,1112c-1.61,0-7.74,16.2-11.13,26.89,0,0,40.89,83.47,181.18,25.84l-7.64-38.58S876.72,1168.27,839.26,1112Z"
                transform="translate(0)" />
        </g>
    </g>
</svg>